<?xml version="1.0" encoding="UTF-8"?>
<svg xmlns="http://www.w3.org/2000/svg" xmlns:xlink="http://www.w3.org/1999/xlink" fill-opacity="1" color-rendering="auto" color-interpolation="auto" stroke="black" text-rendering="auto" stroke-linecap="square" width="771" stroke-miterlimit="10" stroke-opacity="1" shape-rendering="auto" fill="black" stroke-dasharray="none" font-weight="normal" stroke-width="1" height="923" font-family="'Dialog'" font-style="normal" stroke-linejoin="miter" font-size="12" stroke-dashoffset="0" image-rendering="auto">
  <!--Generated by ySVG-->
  <defs id="genericDefs"/>
  <g>
    <defs id="defs1">
      <clipPath clipPathUnits="userSpaceOnUse" id="clipPath1">
        <path d="M0 0 L771 0 L771 923 L0 923 L0 0 Z"/>
      </clipPath>
      <clipPath clipPathUnits="userSpaceOnUse" id="clipPath2">
        <path d="M-196 -90 L575 -90 L575 833 L-196 833 L-196 -90 Z"/>
      </clipPath>
    </defs>
    <g fill="white" transform="translate(196,90)" stroke="white">
      <rect x="-196" width="771" height="923" y="-90" clip-path="url(#clipPath2)" stroke="none"/>
    </g>
    <g stroke-miterlimit="1.45" font-family="sans-serif" transform="matrix(1,0,0,1,196,90)" stroke-linecap="butt">
      <text x="40.8244" xml:space="preserve" y="169.4209" clip-path="url(#clipPath2)" stroke="none">Враца_T7621_08:50_D</text>
      <rect fill="none" x="33.8244" width="148.666" height="30" y="150" clip-path="url(#clipPath2)"/>
      <text x="40.8244" xml:space="preserve" y="114.4209" clip-path="url(#clipPath2)" stroke="none">Враца_T7621_08:48_A</text>
      <rect fill="none" x="33.8244" width="147.957" height="30" y="95" clip-path="url(#clipPath2)"/>
      <text x="-163.3543" xml:space="preserve" y="598.4209" clip-path="url(#clipPath2)" stroke="none">София_T7630_19:10_D</text>
      <rect fill="none" x="-170.3543" width="151.8242" height="30" y="579" clip-path="url(#clipPath2)"/>
      <text x="40.8244" xml:space="preserve" y="278.4209" clip-path="url(#clipPath2)" stroke="none">Враца_T7620_09:04_D</text>
      <rect fill="none" x="33.8244" width="148.666" height="30" y="259" clip-path="url(#clipPath2)"/>
      <text x="-162.9998" xml:space="preserve" y="658.4209" clip-path="url(#clipPath2)" stroke="none">София_T7625_21:15_A</text>
      <rect fill="none" x="-169.9998" width="151.1152" height="30" y="639" clip-path="url(#clipPath2)"/>
      <text x="40.1154" xml:space="preserve" y="483.4209" clip-path="url(#clipPath2)" stroke="none">Враца_T7623_15:50_D</text>
      <rect fill="none" x="33.1154" width="148.666" height="30" y="464" clip-path="url(#clipPath2)"/>
      <text x="40.4699" xml:space="preserve" y="428.4209" clip-path="url(#clipPath2)" stroke="none">Враца_T7623_15:48_A</text>
      <rect fill="none" x="33.4699" width="147.957" height="30" y="409" clip-path="url(#clipPath2)"/>
      <text x="-162.9998" xml:space="preserve" y="478.4209" clip-path="url(#clipPath2)" stroke="none">София_T7623_17:55_A</text>
      <rect fill="none" x="-169.9998" width="151.1152" height="30" y="459" clip-path="url(#clipPath2)"/>
      <text x="39.7609" xml:space="preserve" y="588.4209" clip-path="url(#clipPath2)" stroke="none">Враца_T7624_18:04_D</text>
      <rect fill="none" x="32.7609" width="148.666" height="30" y="569" clip-path="url(#clipPath2)"/>
      <text x="40.1154" xml:space="preserve" y="726.4209" clip-path="url(#clipPath2)" stroke="none">Враца_T7630_21:09_A</text>
      <rect fill="none" x="33.1154" width="147.957" height="30" y="707" clip-path="url(#clipPath2)"/>
      <text x="-162.9998" xml:space="preserve" y="303.4209" clip-path="url(#clipPath2)" stroke="none">София_T7631_09:48_A</text>
      <rect fill="none" x="-169.9998" width="151.1152" height="30" y="284" clip-path="url(#clipPath2)"/>
      <text x="239.3635" xml:space="preserve" y="478.4209" clip-path="url(#clipPath2)" stroke="none">Видин_T7625_16:08_D</text>
      <rect fill="none" x="232.3635" width="150.5938" height="30" y="459" clip-path="url(#clipPath2)"/>
      <text x="-168.5315" xml:space="preserve" y="-55.5791" clip-path="url(#clipPath2)" stroke="none">София_T7620_07:15_D</text>
      <rect fill="none" x="-175.5315" width="151.8242" height="30" y="-75" clip-path="url(#clipPath2)"/>
      <text x="40.8244" xml:space="preserve" y="383.4209" clip-path="url(#clipPath2)" stroke="none">Враца_T7622_14:30_D</text>
      <rect fill="none" x="33.8244" width="148.666" height="30" y="364" clip-path="url(#clipPath2)"/>
      <text x="-163.3543" xml:space="preserve" y="538.4209" clip-path="url(#clipPath2)" stroke="none">София_T7624_16:25_D</text>
      <rect fill="none" x="-170.3543" width="151.8242" height="30" y="519" clip-path="url(#clipPath2)"/>
      <text x="240.427" xml:space="preserve" y="398.4209" clip-path="url(#clipPath2)" stroke="none">Видин_T7623_12:45_D</text>
      <rect fill="none" x="233.427" width="150.5938" height="30" y="379" clip-path="url(#clipPath2)"/>
      <text x="239.718" xml:space="preserve" y="553.4209" clip-path="url(#clipPath2)" stroke="none">Видин_T7622_17:40_A</text>
      <rect fill="none" x="232.718" width="149.8848" height="30" y="534" clip-path="url(#clipPath2)"/>
      <text x="239.718" xml:space="preserve" y="-10.5791" clip-path="url(#clipPath2)" stroke="none">Видин_T7621_06:05_D</text>
      <rect fill="none" x="232.718" width="150.5938" height="30" y="-30" clip-path="url(#clipPath2)"/>
      <text x="39.7609" xml:space="preserve" y="680.4209" clip-path="url(#clipPath2)" stroke="none">Враца_T7625_19:27_D</text>
      <rect fill="none" x="32.7609" width="148.666" height="30" y="661" clip-path="url(#clipPath2)"/>
      <text x="240.427" xml:space="preserve" y="338.4209" clip-path="url(#clipPath2)" stroke="none">Видин_T7620_12:05_A</text>
      <rect fill="none" x="233.427" width="149.8848" height="30" y="319" clip-path="url(#clipPath2)"/>
      <text x="40.8244" xml:space="preserve" y="49.4209" clip-path="url(#clipPath2)" stroke="none">Враца_T7631_07:34_D</text>
      <rect fill="none" x="33.8244" width="148.666" height="30" y="30" clip-path="url(#clipPath2)"/>
      <text x="429.7297" xml:space="preserve" y="807.4209" clip-path="url(#clipPath2)" stroke="none">Лом_T7630_22:57_A</text>
      <rect fill="none" x="422.7297" width="136.8711" height="30" y="788" clip-path="url(#clipPath2)"/>
      <text x="41.1789" xml:space="preserve" y="330.9209" clip-path="url(#clipPath2)" stroke="none">Враца_T7622_14:28_A</text>
      <rect fill="none" x="34.1789" width="147.957" height="30" y="311.5" clip-path="url(#clipPath2)"/>
      <text x="40.8244" xml:space="preserve" y="-10.5791" clip-path="url(#clipPath2)" stroke="none">Враца_T7631_07:31_A</text>
      <rect fill="none" x="33.8244" width="147.957" height="30" y="-30" clip-path="url(#clipPath2)"/>
      <text x="-162.9998" xml:space="preserve" y="353.4209" clip-path="url(#clipPath2)" stroke="none">София_T7621_10:35_A</text>
      <rect fill="none" x="-169.9998" width="151.1152" height="30" y="334" clip-path="url(#clipPath2)"/>
      <text x="-163.3543" xml:space="preserve" y="413.4209" clip-path="url(#clipPath2)" stroke="none">София_T7622_12:25_D</text>
      <rect fill="none" x="-170.3543" width="151.8242" height="30" y="394" clip-path="url(#clipPath2)"/>
      <text x="40.1154" xml:space="preserve" y="538.4209" clip-path="url(#clipPath2)" stroke="none">Враца_T7624_18:02_A</text>
      <rect fill="none" x="33.1154" width="147.957" height="30" y="519" clip-path="url(#clipPath2)"/>
      <text x="40.1154" xml:space="preserve" y="634.4209" clip-path="url(#clipPath2)" stroke="none">Враца_T7625_19:25_A</text>
      <rect fill="none" x="33.1154" width="147.957" height="30" y="615" clip-path="url(#clipPath2)"/>
      <text x="239.718" xml:space="preserve" y="736.4209" clip-path="url(#clipPath2)" stroke="none">Видин_T7624_20:50_A</text>
      <rect fill="none" x="232.718" width="149.8848" height="30" y="717" clip-path="url(#clipPath2)"/>
      <text x="420.3117" xml:space="preserve" y="-55.5791" clip-path="url(#clipPath2)" stroke="none">Лом_T7631_05:35_D</text>
      <rect fill="none" x="413.3117" width="137.5801" height="30" y="-75" clip-path="url(#clipPath2)"/>
      <text x="40.4699" xml:space="preserve" y="218.4209" clip-path="url(#clipPath2)" stroke="none">Враца_T7620_09:02_A</text>
      <rect fill="none" x="33.4699" width="147.957" height="30" y="199" clip-path="url(#clipPath2)"/>
      <text x="39.7609" xml:space="preserve" y="772.4209" clip-path="url(#clipPath2)" stroke="none">Враца_T7630_21:11_D</text>
      <rect fill="none" x="32.7609" width="148.666" height="30" y="753" clip-path="url(#clipPath2)"/>
      <path fill="none" d="M107.8029 125 L107.8029 141.9512" clip-path="url(#clipPath2)"/>
      <path d="M107.8029 149.9512 L112.8029 137.9512 L107.8029 140.9512 L102.8029 137.9512 Z" clip-path="url(#clipPath2)" stroke="none"/>
      <path fill="none" d="M181.7814 110 L192.4904 110 L192.4904 239 L113.1574 239 L113.1574 250.9609" clip-path="url(#clipPath2)"/>
      <path d="M113.1574 258.9609 L118.1574 246.9609 L113.1574 249.9609 L108.1574 246.9609 Z" clip-path="url(#clipPath2)" stroke="none"/>
      <path fill="none" d="M107.4484 439 L107.4484 455.9512" clip-path="url(#clipPath2)"/>
      <path d="M107.4484 463.9512 L112.4484 451.9512 L107.4484 454.9512 L102.4484 451.9512 Z" clip-path="url(#clipPath2)" stroke="none"/>
      <path fill="none" d="M33.09 476.5 L-10.8846 476.5" clip-path="url(#clipPath2)"/>
      <path d="M-18.8846 476.5 L-6.8846 481.5 L-9.8846 476.5 L-6.8846 471.5 Z" clip-path="url(#clipPath2)" stroke="none"/>
      <path fill="none" d="M-170.0403 474 L-180.3543 474 L-180.3543 594 L-178.3934 594" clip-path="url(#clipPath2)"/>
      <path d="M-170.3934 594 L-182.3934 589 L-179.3934 594 L-182.3934 599 Z" clip-path="url(#clipPath2)" stroke="none"/>
      <path fill="none" d="M-18.5301 594 L1.4699 594 L1.4699 722 L25.0845 722" clip-path="url(#clipPath2)"/>
      <path d="M33.0845 722 L21.0845 717 L24.0845 722 L21.0845 727 Z" clip-path="url(#clipPath2)" stroke="none"/>
      <path fill="none" d="M233.427 409 L189.427 409" clip-path="url(#clipPath2)"/>
      <path d="M181.427 409 L193.427 414 L190.427 409 L193.427 404 Z" clip-path="url(#clipPath2)" stroke="none"/>
      <path fill="none" d="M182.4904 379 L213.427 379 L213.427 549 L224.6803 549" clip-path="url(#clipPath2)"/>
      <path d="M232.6803 549 L220.6803 544 L223.6803 549 L220.6803 554 Z" clip-path="url(#clipPath2)" stroke="none"/>
      <path fill="none" d="M308.0148 0 L308.0148 75 L107.8029 75 L107.8029 86.9609" clip-path="url(#clipPath2)"/>
      <path d="M107.8029 94.9609 L112.8029 82.9609 L107.8029 85.9609 L102.8029 82.9609 Z" clip-path="url(#clipPath2)" stroke="none"/>
      <path fill="none" d="M32.7357 665 L-10.8846 665" clip-path="url(#clipPath2)"/>
      <path d="M-18.8846 665 L-6.8846 670 L-9.8846 665 L-6.8846 660 Z" clip-path="url(#clipPath2)" stroke="none"/>
      <path fill="none" d="M108.1574 289 L108.1574 299 L308.3693 299 L308.3693 310.9609" clip-path="url(#clipPath2)"/>
      <path d="M308.3693 318.9609 L313.3693 306.9609 L308.3693 309.9609 L303.3693 306.9609 Z" clip-path="url(#clipPath2)" stroke="none"/>
      <path fill="none" stroke-dasharray="6,2" d="M308.3693 349 L308.3693 370.9707" clip-path="url(#clipPath2)"/>
      <path stroke-dasharray="6,2" d="M308.3693 378.9707 L313.3693 366.9707 L308.3693 369.9707 L303.3693 366.9707 Z" clip-path="url(#clipPath2)" stroke="none"/>
      <path fill="none" d="M33.7882 45 L-114.4422 45 L-114.4422 275.9713" clip-path="url(#clipPath2)"/>
      <path d="M-114.4422 283.9713 L-109.4422 271.9713 L-114.4422 274.9713 L-119.4422 271.9713 Z" clip-path="url(#clipPath2)" stroke="none"/>
      <path fill="none" d="M108.1574 341.5 L108.1574 355.9561" clip-path="url(#clipPath2)"/>
      <path d="M108.1574 363.9561 L113.1574 351.9561 L108.1574 354.9561 L103.1574 351.9561 Z" clip-path="url(#clipPath2)" stroke="none"/>
      <path fill="none" d="M182.1359 326.5 L201.427 326.5 L201.427 479 L189.7814 479" clip-path="url(#clipPath2)"/>
      <path d="M181.7814 479 L193.7814 484 L190.7814 479 L193.7814 474 Z" clip-path="url(#clipPath2)" stroke="none"/>
      <path fill="none" d="M107.8029 0 L107.8029 21.9707" clip-path="url(#clipPath2)"/>
      <path d="M107.8029 29.9707 L112.8029 17.9707 L107.8029 20.9707 L102.8029 17.9707 Z" clip-path="url(#clipPath2)" stroke="none"/>
      <path fill="none" stroke-dasharray="6,2" d="M33.7847 -15 L13.4699 -15 L13.4699 160 L25.7847 160" clip-path="url(#clipPath2)"/>
      <path stroke-dasharray="6,2" d="M33.7847 160 L21.7847 155 L24.7847 160 L21.7847 165 Z" clip-path="url(#clipPath2)" stroke="none"/>
      <path fill="none" stroke-dasharray="6,2" d="M181.7814 -15 L207.7814 -15 L207.7814 274 L190.4904 274" clip-path="url(#clipPath2)"/>
      <path stroke-dasharray="6,2" d="M182.4904 274 L194.4904 279 L191.4904 274 L194.4904 269 Z" clip-path="url(#clipPath2)" stroke="none"/>
      <path fill="none" d="M33.7925 170 L1.1154 170 L1.1154 349 L-10.8846 349" clip-path="url(#clipPath2)"/>
      <path d="M-18.8846 349 L-6.8846 354 L-9.8846 349 L-6.8846 344 Z" clip-path="url(#clipPath2)" stroke="none"/>
      <path fill="none" stroke-dasharray="6,2" d="M-94.4422 364 L-94.4422 385.9707" clip-path="url(#clipPath2)"/>
      <path stroke-dasharray="6,2" d="M-94.4422 393.9707 L-89.4422 381.9707 L-94.4422 384.9707 L-99.4422 381.9707 Z" clip-path="url(#clipPath2)" stroke="none"/>
      <path fill="none" d="M-18.5301 409 L13.4699 409 L13.4699 326.5 L26.1385 326.5" clip-path="url(#clipPath2)"/>
      <path d="M34.1385 326.5 L22.1385 321.5 L25.1385 326.5 L22.1385 331.5 Z" clip-path="url(#clipPath2)" stroke="none"/>
      <path fill="none" d="M-18.5301 534 L25.0902 534" clip-path="url(#clipPath2)"/>
      <path d="M33.0902 534 L21.0902 529 L24.0902 534 L21.0902 539 Z" clip-path="url(#clipPath2)" stroke="none"/>
      <path fill="none" d="M107.0939 549 L107.0939 560.9609" clip-path="url(#clipPath2)"/>
      <path d="M107.0939 568.9609 L112.0939 556.9609 L107.0939 559.9609 L102.0939 556.9609 Z" clip-path="url(#clipPath2)" stroke="none"/>
      <path fill="none" stroke-dasharray="6,2" d="M181.0725 534 L201.427 534 L201.427 676 L189.427 676" clip-path="url(#clipPath2)"/>
      <path stroke-dasharray="6,2" d="M181.427 676 L193.427 681 L190.427 676 L193.427 671 Z" clip-path="url(#clipPath2)" stroke="none"/>
      <path fill="none" d="M382.9572 474 L392.9572 474 L392.9572 630 L189.0725 630" clip-path="url(#clipPath2)"/>
      <path d="M181.0725 630 L193.0725 635 L190.0725 630 L193.0725 625 Z" clip-path="url(#clipPath2)" stroke="none"/>
      <path fill="none" d="M107.0939 645 L107.0939 660.9688" clip-path="url(#clipPath2)"/>
      <path fill="none" d="M181.427 584 L307.6603 584 L307.6603 708.9675" clip-path="url(#clipPath2)"/>
      <path d="M307.6603 716.9675 L312.6603 704.9675 L307.6603 707.9675 L302.6603 704.9675 Z" clip-path="url(#clipPath2)" stroke="none"/>
      <path fill="none" d="M413.2744 -60 L107.8029 -60 L107.8029 -38.0293" clip-path="url(#clipPath2)"/>
      <path d="M107.8029 -30.0293 L112.8029 -42.0293 L107.8029 -39.0293 L102.8029 -42.0293 Z" clip-path="url(#clipPath2)" stroke="none"/>
      <path fill="none" d="M-94.4422 -45 L-94.4422 214 L25.4387 214" clip-path="url(#clipPath2)"/>
      <path d="M33.4387 214 L21.4387 209 L24.4387 214 L21.4387 219 Z" clip-path="url(#clipPath2)" stroke="none"/>
      <path fill="none" d="M103.1574 229 L103.1574 250.9707" clip-path="url(#clipPath2)"/>
      <path d="M103.1574 258.9707 L108.1574 246.9707 L103.1574 249.9707 L98.1574 246.9707 Z" clip-path="url(#clipPath2)" stroke="none"/>
      <path fill="none" stroke-dasharray="6,2" d="M33.0757 630 L12.7609 630 L12.7609 768 L24.7219 768" clip-path="url(#clipPath2)"/>
      <path stroke-dasharray="6,2" d="M32.7219 768 L20.7219 763 L23.7219 768 L20.7219 773 Z" clip-path="url(#clipPath2)" stroke="none"/>
      <path fill="none" d="M107.0939 737 L107.0939 744.9688" clip-path="url(#clipPath2)"/>
      <path d="M107.0939 752.9688 L112.0939 740.9688 L107.0939 743.9688 L102.0939 740.9688 Z" clip-path="url(#clipPath2)" stroke="none"/>
      <path fill="none" d="M181.427 768 L491.1652 768 L491.1652 779.9609" clip-path="url(#clipPath2)"/>
      <path d="M491.1652 787.9609 L496.1652 775.9609 L491.1652 778.9609 L486.1652 775.9609 Z" clip-path="url(#clipPath2)" stroke="none"/>
    </g>
  </g>
</svg>
