<?xml version="1.0" encoding="UTF-8" standalone="no"?>
<!DOCTYPE svg PUBLIC "-//W3C//DTD SVG 1.1//EN"
 "http://www.w3.org/Graphics/SVG/1.1/DTD/svg11.dtd">
<!-- Generated by graphviz version 2.26.3 (20100126.1600)
 -->
<!-- Title: _anonymous_0 Pages: 1 -->
<svg width="884pt" height="1124pt"
 viewBox="0.00 0.00 884.00 1124.00" xmlns="http://www.w3.org/2000/svg" xmlns:xlink="http://www.w3.org/1999/xlink">
<g id="graph1" class="graph" transform="scale(1 1) rotate(0) translate(4 1120)">
<title>_anonymous_0</title>
<polygon fill="white" stroke="white" points="-4,5 -4,-1120 881,-1120 881,5 -4,5"/>
<!-- София T7620\n07:15 D -->
<g id="node1" class="node"><title>София T7620\n07:15 D</title>
<ellipse fill="none" stroke="black" cx="523" cy="-1086" rx="80.1095" ry="29.6985"/>
<text text-anchor="middle" x="523" y="-1090.4" font-family="Times Roman,serif" font-size="14.00">София T7620</text>
<text text-anchor="middle" x="523" y="-1073.4" font-family="Times Roman,serif" font-size="14.00">07:15 D</text>
</g>
<!-- Враца T7620\n09:02 A -->
<g id="node3" class="node"><title>Враца T7620\n09:02 A</title>
<ellipse fill="none" stroke="black" cx="521" cy="-990" rx="77.9889" ry="29.6985"/>
<text text-anchor="middle" x="521" y="-994.4" font-family="Times Roman,serif" font-size="14.00">Враца T7620</text>
<text text-anchor="middle" x="521" y="-977.4" font-family="Times Roman,serif" font-size="14.00">09:02 A</text>
</g>
<!-- София T7620\n07:15 D&#45;&gt;Враца T7620\n09:02 A -->
<g id="edge2" class="edge"><title>София T7620\n07:15 D&#45;&gt;Враца T7620\n09:02 A</title>
<path fill="none" stroke="black" d="M522.384,-1056.41C522.209,-1048.02 522.015,-1038.74 521.83,-1029.84"/>
<polygon fill="black" stroke="black" points="525.325,-1029.58 521.618,-1019.65 518.327,-1029.72 525.325,-1029.58"/>
</g>
<!-- Враца T7620\n09:04 D -->
<g id="node23" class="node"><title>Враца T7620\n09:04 D</title>
<ellipse fill="none" stroke="black" cx="434" cy="-894" rx="77.9889" ry="29.6985"/>
<text text-anchor="middle" x="434" y="-898.4" font-family="Times Roman,serif" font-size="14.00">Враца T7620</text>
<text text-anchor="middle" x="434" y="-881.4" font-family="Times Roman,serif" font-size="14.00">09:04 D</text>
</g>
<!-- Враца T7620\n09:02 A&#45;&gt;Враца T7620\n09:04 D -->
<g id="edge28" class="edge"><title>Враца T7620\n09:02 A&#45;&gt;Враца T7620\n09:04 D</title>
<path fill="none" stroke="black" d="M495.602,-961.975C486.481,-951.91 476.068,-940.419 466.431,-929.785"/>
<polygon fill="black" stroke="black" points="468.889,-927.286 459.58,-922.226 463.702,-931.987 468.889,-927.286"/>
</g>
<!-- София T7621\n10:35 A -->
<g id="node4" class="node"><title>София T7621\n10:35 A</title>
<ellipse fill="none" stroke="black" cx="258" cy="-798" rx="80.1095" ry="29.6985"/>
<text text-anchor="middle" x="258" y="-802.4" font-family="Times Roman,serif" font-size="14.00">София T7621</text>
<text text-anchor="middle" x="258" y="-785.4" font-family="Times Roman,serif" font-size="14.00">10:35 A</text>
</g>
<!-- София T7622\n12:25 D -->
<g id="node6" class="node"><title>София T7622\n12:25 D</title>
<ellipse fill="none" stroke="black" cx="258" cy="-702" rx="80.1095" ry="29.6985"/>
<text text-anchor="middle" x="258" y="-706.4" font-family="Times Roman,serif" font-size="14.00">София T7622</text>
<text text-anchor="middle" x="258" y="-689.4" font-family="Times Roman,serif" font-size="14.00">12:25 D</text>
</g>
<!-- София T7621\n10:35 A&#45;&gt;София T7622\n12:25 D -->
<g id="edge4" class="edge"><title>София T7621\n10:35 A&#45;&gt;София T7622\n12:25 D</title>
<path fill="none" stroke="black" stroke-dasharray="1,5" d="M258,-768.414C258,-760.019 258,-750.739 258,-741.843"/>
<polygon fill="black" stroke="black" points="261.5,-741.654 258,-731.654 254.5,-741.654 261.5,-741.654"/>
</g>
<!-- Враца T7622\n14:28 A -->
<g id="node8" class="node"><title>Враца T7622\n14:28 A</title>
<ellipse fill="none" stroke="black" cx="258" cy="-606" rx="77.9889" ry="29.6985"/>
<text text-anchor="middle" x="258" y="-610.4" font-family="Times Roman,serif" font-size="14.00">Враца T7622</text>
<text text-anchor="middle" x="258" y="-593.4" font-family="Times Roman,serif" font-size="14.00">14:28 A</text>
</g>
<!-- София T7622\n12:25 D&#45;&gt;Враца T7622\n14:28 A -->
<g id="edge6" class="edge"><title>София T7622\n12:25 D&#45;&gt;Враца T7622\n14:28 A</title>
<path fill="none" stroke="black" d="M258,-672.414C258,-664.019 258,-654.739 258,-645.843"/>
<polygon fill="black" stroke="black" points="261.5,-645.654 258,-635.654 254.5,-645.654 261.5,-645.654"/>
</g>
<!-- Враца T7622\n14:30 D -->
<g id="node34" class="node"><title>Враца T7622\n14:30 D</title>
<ellipse fill="none" stroke="black" cx="258" cy="-510" rx="77.9889" ry="29.6985"/>
<text text-anchor="middle" x="258" y="-514.4" font-family="Times Roman,serif" font-size="14.00">Враца T7622</text>
<text text-anchor="middle" x="258" y="-497.4" font-family="Times Roman,serif" font-size="14.00">14:30 D</text>
</g>
<!-- Враца T7622\n14:28 A&#45;&gt;Враца T7622\n14:30 D -->
<g id="edge32" class="edge"><title>Враца T7622\n14:28 A&#45;&gt;Враца T7622\n14:30 D</title>
<path fill="none" stroke="black" d="M258,-576.414C258,-568.019 258,-558.739 258,-549.843"/>
<polygon fill="black" stroke="black" points="261.5,-549.654 258,-539.654 254.5,-549.654 261.5,-549.654"/>
</g>
<!-- Враца T7623\n15:50 D -->
<g id="node36" class="node"><title>Враца T7623\n15:50 D</title>
<ellipse fill="none" stroke="black" cx="437" cy="-510" rx="77.9889" ry="29.6985"/>
<text text-anchor="middle" x="437" y="-514.4" font-family="Times Roman,serif" font-size="14.00">Враца T7623</text>
<text text-anchor="middle" x="437" y="-497.4" font-family="Times Roman,serif" font-size="14.00">15:50 D</text>
</g>
<!-- Враца T7622\n14:28 A&#45;&gt;Враца T7623\n15:50 D -->
<g id="edge34" class="edge"><title>Враца T7622\n14:28 A&#45;&gt;Враца T7623\n15:50 D</title>
<path fill="none" stroke="black" stroke-dasharray="1,5" d="M303.169,-581.775C327.336,-568.814 357.273,-552.759 382.7,-539.122"/>
<polygon fill="black" stroke="black" points="384.687,-542.028 391.845,-534.217 381.378,-535.859 384.687,-542.028"/>
</g>
<!-- София T7624\n16:25 D -->
<g id="node9" class="node"><title>София T7624\n16:25 D</title>
<ellipse fill="none" stroke="black" cx="795" cy="-318" rx="80.1095" ry="29.6985"/>
<text text-anchor="middle" x="795" y="-322.4" font-family="Times Roman,serif" font-size="14.00">София T7624</text>
<text text-anchor="middle" x="795" y="-305.4" font-family="Times Roman,serif" font-size="14.00">16:25 D</text>
</g>
<!-- Враца T7624\n18:02 A -->
<g id="node11" class="node"><title>Враца T7624\n18:02 A</title>
<ellipse fill="none" stroke="black" cx="795" cy="-222" rx="77.9889" ry="29.6985"/>
<text text-anchor="middle" x="795" y="-226.4" font-family="Times Roman,serif" font-size="14.00">Враца T7624</text>
<text text-anchor="middle" x="795" y="-209.4" font-family="Times Roman,serif" font-size="14.00">18:02 A</text>
</g>
<!-- София T7624\n16:25 D&#45;&gt;Враца T7624\n18:02 A -->
<g id="edge8" class="edge"><title>София T7624\n16:25 D&#45;&gt;Враца T7624\n18:02 A</title>
<path fill="none" stroke="black" d="M795,-288.414C795,-280.019 795,-270.739 795,-261.843"/>
<polygon fill="black" stroke="black" points="798.5,-261.654 795,-251.654 791.5,-261.654 798.5,-261.654"/>
</g>
<!-- Враца T7624\n18:04 D -->
<g id="node43" class="node"><title>Враца T7624\n18:04 D</title>
<ellipse fill="none" stroke="black" cx="795" cy="-126" rx="77.9889" ry="29.6985"/>
<text text-anchor="middle" x="795" y="-130.4" font-family="Times Roman,serif" font-size="14.00">Враца T7624</text>
<text text-anchor="middle" x="795" y="-113.4" font-family="Times Roman,serif" font-size="14.00">18:04 D</text>
</g>
<!-- Враца T7624\n18:02 A&#45;&gt;Враца T7624\n18:04 D -->
<g id="edge42" class="edge"><title>Враца T7624\n18:02 A&#45;&gt;Враца T7624\n18:04 D</title>
<path fill="none" stroke="black" d="M795,-192.414C795,-184.019 795,-174.739 795,-165.843"/>
<polygon fill="black" stroke="black" points="798.5,-165.654 795,-155.654 791.5,-165.654 798.5,-165.654"/>
</g>
<!-- Враца T7625\n19:27 D -->
<g id="node45" class="node"><title>Враца T7625\n19:27 D</title>
<ellipse fill="none" stroke="black" cx="616" cy="-126" rx="77.9889" ry="29.6985"/>
<text text-anchor="middle" x="616" y="-130.4" font-family="Times Roman,serif" font-size="14.00">Враца T7625</text>
<text text-anchor="middle" x="616" y="-113.4" font-family="Times Roman,serif" font-size="14.00">19:27 D</text>
</g>
<!-- Враца T7624\n18:02 A&#45;&gt;Враца T7625\n19:27 D -->
<g id="edge44" class="edge"><title>Враца T7624\n18:02 A&#45;&gt;Враца T7625\n19:27 D</title>
<path fill="none" stroke="black" stroke-dasharray="1,5" d="M749.831,-197.775C725.664,-184.814 695.727,-168.759 670.3,-155.122"/>
<polygon fill="black" stroke="black" points="671.622,-151.859 661.155,-150.217 668.313,-158.028 671.622,-151.859"/>
</g>
<!-- София T7623\n17:55 A -->
<g id="node12" class="node"><title>София T7623\n17:55 A</title>
<ellipse fill="none" stroke="black" cx="437" cy="-414" rx="80.1095" ry="29.6985"/>
<text text-anchor="middle" x="437" y="-418.4" font-family="Times Roman,serif" font-size="14.00">София T7623</text>
<text text-anchor="middle" x="437" y="-401.4" font-family="Times Roman,serif" font-size="14.00">17:55 A</text>
</g>
<!-- София T7630\n19:10 D -->
<g id="node14" class="node"><title>София T7630\n19:10 D</title>
<ellipse fill="none" stroke="black" cx="437" cy="-318" rx="80.1095" ry="29.6985"/>
<text text-anchor="middle" x="437" y="-322.4" font-family="Times Roman,serif" font-size="14.00">София T7630</text>
<text text-anchor="middle" x="437" y="-305.4" font-family="Times Roman,serif" font-size="14.00">19:10 D</text>
</g>
<!-- София T7623\n17:55 A&#45;&gt;София T7630\n19:10 D -->
<g id="edge10" class="edge"><title>София T7623\n17:55 A&#45;&gt;София T7630\n19:10 D</title>
<path fill="none" stroke="black" stroke-dasharray="1,5" d="M437,-384.414C437,-376.019 437,-366.739 437,-357.843"/>
<polygon fill="black" stroke="black" points="440.5,-357.654 437,-347.654 433.5,-357.654 440.5,-357.654"/>
</g>
<!-- Враца T7630\n21:09 A -->
<g id="node16" class="node"><title>Враца T7630\n21:09 A</title>
<ellipse fill="none" stroke="black" cx="440" cy="-222" rx="77.9889" ry="29.6985"/>
<text text-anchor="middle" x="440" y="-226.4" font-family="Times Roman,serif" font-size="14.00">Враца T7630</text>
<text text-anchor="middle" x="440" y="-209.4" font-family="Times Roman,serif" font-size="14.00">21:09 A</text>
</g>
<!-- София T7630\n19:10 D&#45;&gt;Враца T7630\n21:09 A -->
<g id="edge12" class="edge"><title>София T7630\n19:10 D&#45;&gt;Враца T7630\n21:09 A</title>
<path fill="none" stroke="black" d="M437.925,-288.414C438.187,-280.019 438.477,-270.739 438.755,-261.843"/>
<polygon fill="black" stroke="black" points="442.259,-261.759 439.073,-251.654 435.263,-261.54 442.259,-261.759"/>
</g>
<!-- Враца T7630\n21:11 D -->
<g id="node51" class="node"><title>Враца T7630\n21:11 D</title>
<ellipse fill="none" stroke="black" cx="441" cy="-126" rx="77.9889" ry="29.6985"/>
<text text-anchor="middle" x="441" y="-130.4" font-family="Times Roman,serif" font-size="14.00">Враца T7630</text>
<text text-anchor="middle" x="441" y="-113.4" font-family="Times Roman,serif" font-size="14.00">21:11 D</text>
</g>
<!-- Враца T7630\n21:09 A&#45;&gt;Враца T7630\n21:11 D -->
<g id="edge54" class="edge"><title>Враца T7630\n21:09 A&#45;&gt;Враца T7630\n21:11 D</title>
<path fill="none" stroke="black" d="M440.308,-192.414C440.396,-184.019 440.492,-174.739 440.585,-165.843"/>
<polygon fill="black" stroke="black" points="444.087,-165.69 440.691,-155.654 437.087,-165.617 444.087,-165.69"/>
</g>
<!-- Враца T7631\n07:31 A -->
<g id="node17" class="node"><title>Враца T7631\n07:31 A</title>
<ellipse fill="none" stroke="black" cx="173" cy="-990" rx="77.9889" ry="29.6985"/>
<text text-anchor="middle" x="173" y="-994.4" font-family="Times Roman,serif" font-size="14.00">Враца T7631</text>
<text text-anchor="middle" x="173" y="-977.4" font-family="Times Roman,serif" font-size="14.00">07:31 A</text>
</g>
<!-- Враца T7631\n07:34 D -->
<g id="node19" class="node"><title>Враца T7631\n07:34 D</title>
<ellipse fill="none" stroke="black" cx="82" cy="-894" rx="77.9889" ry="29.6985"/>
<text text-anchor="middle" x="82" y="-898.4" font-family="Times Roman,serif" font-size="14.00">Враца T7631</text>
<text text-anchor="middle" x="82" y="-881.4" font-family="Times Roman,serif" font-size="14.00">07:34 D</text>
</g>
<!-- Враца T7631\n07:31 A&#45;&gt;Враца T7631\n07:34 D -->
<g id="edge14" class="edge"><title>Враца T7631\n07:31 A&#45;&gt;Враца T7631\n07:34 D</title>
<path fill="none" stroke="black" d="M146.434,-961.975C136.716,-951.722 125.595,-939.99 115.359,-929.192"/>
<polygon fill="black" stroke="black" points="117.861,-926.744 108.441,-921.894 112.781,-931.56 117.861,-926.744"/>
</g>
<!-- Враца T7621\n08:50 D -->
<g id="node21" class="node"><title>Враца T7621\n08:50 D</title>
<ellipse fill="none" stroke="black" cx="258" cy="-894" rx="77.9889" ry="29.6985"/>
<text text-anchor="middle" x="258" y="-898.4" font-family="Times Roman,serif" font-size="14.00">Враца T7621</text>
<text text-anchor="middle" x="258" y="-881.4" font-family="Times Roman,serif" font-size="14.00">08:50 D</text>
</g>
<!-- Враца T7631\n07:31 A&#45;&gt;Враца T7621\n08:50 D -->
<g id="edge16" class="edge"><title>Враца T7631\n07:31 A&#45;&gt;Враца T7621\n08:50 D</title>
<path fill="none" stroke="black" stroke-dasharray="1,5" d="M197.814,-961.975C206.725,-951.91 216.9,-940.419 226.315,-929.785"/>
<polygon fill="black" stroke="black" points="228.999,-932.033 233.008,-922.226 223.758,-927.393 228.999,-932.033"/>
</g>
<!-- Враца T7631\n07:31 A&#45;&gt;Враца T7620\n09:04 D -->
<g id="edge18" class="edge"><title>Враца T7631\n07:31 A&#45;&gt;Враца T7620\n09:04 D</title>
<path fill="none" stroke="black" stroke-dasharray="1,5" d="M228.991,-969.406C269.792,-954.398 325.208,-934.016 368.137,-918.225"/>
<polygon fill="black" stroke="black" points="369.475,-921.463 377.652,-914.726 367.058,-914.893 369.475,-921.463"/>
</g>
<!-- София T7631\n09:48 A -->
<g id="node25" class="node"><title>София T7631\n09:48 A</title>
<ellipse fill="none" stroke="black" cx="80" cy="-798" rx="80.1095" ry="29.6985"/>
<text text-anchor="middle" x="80" y="-802.4" font-family="Times Roman,serif" font-size="14.00">София T7631</text>
<text text-anchor="middle" x="80" y="-785.4" font-family="Times Roman,serif" font-size="14.00">09:48 A</text>
</g>
<!-- Враца T7631\n07:34 D&#45;&gt;София T7631\n09:48 A -->
<g id="edge20" class="edge"><title>Враца T7631\n07:34 D&#45;&gt;София T7631\n09:48 A</title>
<path fill="none" stroke="black" d="M81.3836,-864.414C81.2087,-856.019 81.0154,-846.739 80.8301,-837.843"/>
<polygon fill="black" stroke="black" points="84.3254,-837.579 80.6178,-827.654 77.3269,-837.725 84.3254,-837.579"/>
</g>
<!-- Враца T7621\n08:50 D&#45;&gt;София T7621\n10:35 A -->
<g id="edge26" class="edge"><title>Враца T7621\n08:50 D&#45;&gt;София T7621\n10:35 A</title>
<path fill="none" stroke="black" d="M258,-864.414C258,-856.019 258,-846.739 258,-837.843"/>
<polygon fill="black" stroke="black" points="261.5,-837.654 258,-827.654 254.5,-837.654 261.5,-837.654"/>
</g>
<!-- Видин T7620\n12:05 A -->
<g id="node32" class="node"><title>Видин T7620\n12:05 A</title>
<ellipse fill="none" stroke="black" cx="437" cy="-798" rx="80.8184" ry="29.6985"/>
<text text-anchor="middle" x="437" y="-802.4" font-family="Times Roman,serif" font-size="14.00">Видин T7620</text>
<text text-anchor="middle" x="437" y="-785.4" font-family="Times Roman,serif" font-size="14.00">12:05 A</text>
</g>
<!-- Враца T7620\n09:04 D&#45;&gt;Видин T7620\n12:05 A -->
<g id="edge30" class="edge"><title>Враца T7620\n09:04 D&#45;&gt;Видин T7620\n12:05 A</title>
<path fill="none" stroke="black" d="M434.925,-864.414C435.187,-856.019 435.477,-846.739 435.755,-837.843"/>
<polygon fill="black" stroke="black" points="439.259,-837.759 436.073,-827.654 432.263,-837.54 439.259,-837.759"/>
</g>
<!-- Враца T7621\n08:48 A -->
<g id="node26" class="node"><title>Враца T7621\n08:48 A</title>
<ellipse fill="none" stroke="black" cx="347" cy="-990" rx="77.9889" ry="29.6985"/>
<text text-anchor="middle" x="347" y="-994.4" font-family="Times Roman,serif" font-size="14.00">Враца T7621</text>
<text text-anchor="middle" x="347" y="-977.4" font-family="Times Roman,serif" font-size="14.00">08:48 A</text>
</g>
<!-- Враца T7621\n08:48 A&#45;&gt;Враца T7621\n08:50 D -->
<g id="edge22" class="edge"><title>Враца T7621\n08:48 A&#45;&gt;Враца T7621\n08:50 D</title>
<path fill="none" stroke="black" d="M321.018,-961.975C311.605,-951.821 300.846,-940.216 290.914,-929.503"/>
<polygon fill="black" stroke="black" points="293.226,-926.848 283.86,-921.894 288.092,-931.607 293.226,-926.848"/>
</g>
<!-- Враца T7621\n08:48 A&#45;&gt;Враца T7620\n09:04 D -->
<g id="edge24" class="edge"><title>Враца T7621\n08:48 A&#45;&gt;Враца T7620\n09:04 D</title>
<path fill="none" stroke="black" stroke-dasharray="1,5" d="M372.398,-961.975C381.519,-951.91 391.932,-940.419 401.569,-929.785"/>
<polygon fill="black" stroke="black" points="404.298,-931.987 408.42,-922.226 399.111,-927.286 404.298,-931.987"/>
</g>
<!-- Видин T7623\n12:45 D -->
<g id="node60" class="node"><title>Видин T7623\n12:45 D</title>
<ellipse fill="none" stroke="black" cx="437" cy="-702" rx="80.8184" ry="29.6985"/>
<text text-anchor="middle" x="437" y="-706.4" font-family="Times Roman,serif" font-size="14.00">Видин T7623</text>
<text text-anchor="middle" x="437" y="-689.4" font-family="Times Roman,serif" font-size="14.00">12:45 D</text>
</g>
<!-- Видин T7620\n12:05 A&#45;&gt;Видин T7623\n12:45 D -->
<g id="edge60" class="edge"><title>Видин T7620\n12:05 A&#45;&gt;Видин T7623\n12:45 D</title>
<path fill="none" stroke="black" stroke-dasharray="1,5" d="M437,-768.414C437,-760.019 437,-750.739 437,-741.843"/>
<polygon fill="black" stroke="black" points="440.5,-741.654 437,-731.654 433.5,-741.654 440.5,-741.654"/>
</g>
<!-- Видин T7622\n17:40 A -->
<g id="node38" class="node"><title>Видин T7622\n17:40 A</title>
<ellipse fill="none" stroke="black" cx="258" cy="-414" rx="80.8184" ry="29.6985"/>
<text text-anchor="middle" x="258" y="-418.4" font-family="Times Roman,serif" font-size="14.00">Видин T7622</text>
<text text-anchor="middle" x="258" y="-401.4" font-family="Times Roman,serif" font-size="14.00">17:40 A</text>
</g>
<!-- Враца T7622\n14:30 D&#45;&gt;Видин T7622\n17:40 A -->
<g id="edge36" class="edge"><title>Враца T7622\n14:30 D&#45;&gt;Видин T7622\n17:40 A</title>
<path fill="none" stroke="black" d="M258,-480.414C258,-472.019 258,-462.739 258,-453.843"/>
<polygon fill="black" stroke="black" points="261.5,-453.654 258,-443.654 254.5,-453.654 261.5,-453.654"/>
</g>
<!-- Враца T7623\n15:50 D&#45;&gt;София T7623\n17:55 A -->
<g id="edge40" class="edge"><title>Враца T7623\n15:50 D&#45;&gt;София T7623\n17:55 A</title>
<path fill="none" stroke="black" d="M437,-480.414C437,-472.019 437,-462.739 437,-453.843"/>
<polygon fill="black" stroke="black" points="440.5,-453.654 437,-443.654 433.5,-453.654 440.5,-453.654"/>
</g>
<!-- Враца T7623\n15:48 A -->
<g id="node39" class="node"><title>Враца T7623\n15:48 A</title>
<ellipse fill="none" stroke="black" cx="437" cy="-606" rx="77.9889" ry="29.6985"/>
<text text-anchor="middle" x="437" y="-610.4" font-family="Times Roman,serif" font-size="14.00">Враца T7623</text>
<text text-anchor="middle" x="437" y="-593.4" font-family="Times Roman,serif" font-size="14.00">15:48 A</text>
</g>
<!-- Враца T7623\n15:48 A&#45;&gt;Враца T7623\n15:50 D -->
<g id="edge38" class="edge"><title>Враца T7623\n15:48 A&#45;&gt;Враца T7623\n15:50 D</title>
<path fill="none" stroke="black" d="M437,-576.414C437,-568.019 437,-558.739 437,-549.843"/>
<polygon fill="black" stroke="black" points="440.5,-549.654 437,-539.654 433.5,-549.654 440.5,-549.654"/>
</g>
<!-- Видин T7624\n20:50 A -->
<g id="node47" class="node"><title>Видин T7624\n20:50 A</title>
<ellipse fill="none" stroke="black" cx="795" cy="-30" rx="80.8184" ry="29.6985"/>
<text text-anchor="middle" x="795" y="-34.4" font-family="Times Roman,serif" font-size="14.00">Видин T7624</text>
<text text-anchor="middle" x="795" y="-17.4" font-family="Times Roman,serif" font-size="14.00">20:50 A</text>
</g>
<!-- Враца T7624\n18:04 D&#45;&gt;Видин T7624\n20:50 A -->
<g id="edge46" class="edge"><title>Враца T7624\n18:04 D&#45;&gt;Видин T7624\n20:50 A</title>
<path fill="none" stroke="black" d="M795,-96.4135C795,-88.0189 795,-78.7386 795,-69.8433"/>
<polygon fill="black" stroke="black" points="798.5,-69.654 795,-59.6541 791.5,-69.6541 798.5,-69.654"/>
</g>
<!-- София T7625\n21:15 A -->
<g id="node53" class="node"><title>София T7625\n21:15 A</title>
<ellipse fill="none" stroke="black" cx="616" cy="-30" rx="80.1095" ry="29.6985"/>
<text text-anchor="middle" x="616" y="-34.4" font-family="Times Roman,serif" font-size="14.00">София T7625</text>
<text text-anchor="middle" x="616" y="-17.4" font-family="Times Roman,serif" font-size="14.00">21:15 A</text>
</g>
<!-- Враца T7625\n19:27 D&#45;&gt;София T7625\n21:15 A -->
<g id="edge52" class="edge"><title>Враца T7625\n19:27 D&#45;&gt;София T7625\n21:15 A</title>
<path fill="none" stroke="black" d="M616,-96.4135C616,-88.0189 616,-78.7386 616,-69.8433"/>
<polygon fill="black" stroke="black" points="619.5,-69.654 616,-59.6541 612.5,-69.6541 619.5,-69.654"/>
</g>
<!-- Враца T7625\n19:25 A -->
<g id="node48" class="node"><title>Враца T7625\n19:25 A</title>
<ellipse fill="none" stroke="black" cx="616" cy="-222" rx="77.9889" ry="29.6985"/>
<text text-anchor="middle" x="616" y="-226.4" font-family="Times Roman,serif" font-size="14.00">Враца T7625</text>
<text text-anchor="middle" x="616" y="-209.4" font-family="Times Roman,serif" font-size="14.00">19:25 A</text>
</g>
<!-- Враца T7625\n19:25 A&#45;&gt;Враца T7625\n19:27 D -->
<g id="edge48" class="edge"><title>Враца T7625\n19:25 A&#45;&gt;Враца T7625\n19:27 D</title>
<path fill="none" stroke="black" d="M616,-192.414C616,-184.019 616,-174.739 616,-165.843"/>
<polygon fill="black" stroke="black" points="619.5,-165.654 616,-155.654 612.5,-165.654 619.5,-165.654"/>
</g>
<!-- Враца T7625\n19:25 A&#45;&gt;Враца T7630\n21:11 D -->
<g id="edge50" class="edge"><title>Враца T7625\n19:25 A&#45;&gt;Враца T7630\n21:11 D</title>
<path fill="none" stroke="black" stroke-dasharray="1,5" d="M571.387,-197.527C547.938,-184.663 519.029,-168.804 494.395,-155.291"/>
<polygon fill="black" stroke="black" points="495.982,-152.17 485.531,-150.429 492.615,-158.307 495.982,-152.17"/>
</g>
<!-- Лом T7630\n22:57 A -->
<g id="node56" class="node"><title>Лом T7630\n22:57 A</title>
<ellipse fill="none" stroke="black" cx="441" cy="-30" rx="67.8823" ry="29.6985"/>
<text text-anchor="middle" x="441" y="-34.4" font-family="Times Roman,serif" font-size="14.00">Лом T7630</text>
<text text-anchor="middle" x="441" y="-17.4" font-family="Times Roman,serif" font-size="14.00">22:57 A</text>
</g>
<!-- Враца T7630\n21:11 D&#45;&gt;Лом T7630\n22:57 A -->
<g id="edge56" class="edge"><title>Враца T7630\n21:11 D&#45;&gt;Лом T7630\n22:57 A</title>
<path fill="none" stroke="black" d="M441,-96.4135C441,-88.0189 441,-78.7386 441,-69.8433"/>
<polygon fill="black" stroke="black" points="444.5,-69.654 441,-59.6541 437.5,-69.6541 444.5,-69.654"/>
</g>
<!-- Видин T7621\n06:05 D -->
<g id="node57" class="node"><title>Видин T7621\n06:05 D</title>
<ellipse fill="none" stroke="black" cx="344" cy="-1086" rx="80.8184" ry="29.6985"/>
<text text-anchor="middle" x="344" y="-1090.4" font-family="Times Roman,serif" font-size="14.00">Видин T7621</text>
<text text-anchor="middle" x="344" y="-1073.4" font-family="Times Roman,serif" font-size="14.00">06:05 D</text>
</g>
<!-- Видин T7621\n06:05 D&#45;&gt;Враца T7621\n08:48 A -->
<g id="edge58" class="edge"><title>Видин T7621\n06:05 D&#45;&gt;Враца T7621\n08:48 A</title>
<path fill="none" stroke="black" d="M344.925,-1056.41C345.187,-1048.02 345.477,-1038.74 345.755,-1029.84"/>
<polygon fill="black" stroke="black" points="349.259,-1029.76 346.073,-1019.65 342.263,-1029.54 349.259,-1029.76"/>
</g>
<!-- Видин T7623\n12:45 D&#45;&gt;Враца T7623\n15:48 A -->
<g id="edge62" class="edge"><title>Видин T7623\n12:45 D&#45;&gt;Враца T7623\n15:48 A</title>
<path fill="none" stroke="black" d="M437,-672.414C437,-664.019 437,-654.739 437,-645.843"/>
<polygon fill="black" stroke="black" points="440.5,-645.654 437,-635.654 433.5,-645.654 440.5,-645.654"/>
</g>
<!-- Видин T7625\n16:08 D -->
<g id="node62" class="node"><title>Видин T7625\n16:08 D</title>
<ellipse fill="none" stroke="black" cx="616" cy="-318" rx="80.8184" ry="29.6985"/>
<text text-anchor="middle" x="616" y="-322.4" font-family="Times Roman,serif" font-size="14.00">Видин T7625</text>
<text text-anchor="middle" x="616" y="-305.4" font-family="Times Roman,serif" font-size="14.00">16:08 D</text>
</g>
<!-- Видин T7625\n16:08 D&#45;&gt;Враца T7625\n19:25 A -->
<g id="edge64" class="edge"><title>Видин T7625\n16:08 D&#45;&gt;Враца T7625\n19:25 A</title>
<path fill="none" stroke="black" d="M616,-288.414C616,-280.019 616,-270.739 616,-261.843"/>
<polygon fill="black" stroke="black" points="619.5,-261.654 616,-251.654 612.5,-261.654 619.5,-261.654"/>
</g>
<!-- Лом T7631\n05:35 D -->
<g id="node64" class="node"><title>Лом T7631\n05:35 D</title>
<ellipse fill="none" stroke="black" cx="173" cy="-1086" rx="67.8823" ry="29.6985"/>
<text text-anchor="middle" x="173" y="-1090.4" font-family="Times Roman,serif" font-size="14.00">Лом T7631</text>
<text text-anchor="middle" x="173" y="-1073.4" font-family="Times Roman,serif" font-size="14.00">05:35 D</text>
</g>
<!-- Лом T7631\n05:35 D&#45;&gt;Враца T7631\n07:31 A -->
<g id="edge66" class="edge"><title>Лом T7631\n05:35 D&#45;&gt;Враца T7631\n07:31 A</title>
<path fill="none" stroke="black" d="M173,-1056.41C173,-1048.02 173,-1038.74 173,-1029.84"/>
<polygon fill="black" stroke="black" points="176.5,-1029.65 173,-1019.65 169.5,-1029.65 176.5,-1029.65"/>
</g>
</g>
</svg>
