<?xml version="1.0" encoding="UTF-8" standalone="no"?>
<svg
   xmlns:dc="http://purl.org/dc/elements/1.1/"
   xmlns:cc="http://creativecommons.org/ns#"
   xmlns:rdf="http://www.w3.org/1999/02/22-rdf-syntax-ns#"
   xmlns:svg="http://www.w3.org/2000/svg"
   xmlns="http://www.w3.org/2000/svg"
   xmlns:sodipodi="http://sodipodi.sourceforge.net/DTD/sodipodi-0.dtd"
   xmlns:inkscape="http://www.inkscape.org/namespaces/inkscape"
   fill-opacity="1"
   color-rendering="auto"
   color-interpolation="auto"
   stroke="black"
   text-rendering="auto"
   stroke-linecap="square"
   width="285"
   stroke-miterlimit="10"
   stroke-opacity="1"
   shape-rendering="auto"
   fill="black"
   stroke-dasharray="none"
   font-weight="normal"
   stroke-width="1"
   height="225"
   font-family="'Dialog'"
   font-style="normal"
   stroke-linejoin="miter"
   font-size="12"
   stroke-dashoffset="0"
   image-rendering="auto"
   id="svg2"
   version="1.1"
   inkscape:version="0.48.3.1 r9886"
   sodipodi:docname="func_all.svg">
  <metadata
     id="metadata82">
    <rdf:RDF>
      <cc:Work
         rdf:about="">
        <dc:format>image/svg+xml</dc:format>
        <dc:type
           rdf:resource="http://purl.org/dc/dcmitype/StillImage" />
      </cc:Work>
    </rdf:RDF>
  </metadata>
  <sodipodi:namedview
     pagecolor="#ffffff"
     bordercolor="#666666"
     borderopacity="1"
     objecttolerance="10"
     gridtolerance="10"
     guidetolerance="10"
     inkscape:pageopacity="0"
     inkscape:pageshadow="2"
     inkscape:window-width="640"
     inkscape:window-height="480"
     id="namedview80"
     showgrid="false"
     inkscape:zoom="1.0488889"
     inkscape:cx="151.25963"
     inkscape:cy="42.433019"
     inkscape:window-x="398"
     inkscape:window-y="179"
     inkscape:window-maximized="0"
     inkscape:current-layer="svg2" />
  <!--Generated by ySVG-->
  <defs
     id="genericDefs">
    <defs
       id="defs1">
      <clipPath
         id="clipPath1"
         clipPathUnits="userSpaceOnUse">
        <path
           id="path9"
           d="M0 0 L285 0 L285 225 L0 225 L0 0 Z" />
      </clipPath>
      <clipPath
         id="clipPath2"
         clipPathUnits="userSpaceOnUse">
        <path
           id="path12"
           d="M-15 -15 L270 -15 L270 210 L-15 210 L-15 -15 Z" />
      </clipPath>
    </defs>
  </defs>
  <g
     id="g3031">
    <rect
       transform="translate(15,15)"
       style="fill:#ffffff;stroke:none"
       id="rect16"
       clip-path="url(#clipPath2)"
       y="-15"
       height="225"
       width="285"
       x="-15" />
    <path
       transform="translate(15,15)"
       style="fill:none;stroke-linecap:butt;stroke-miterlimit:1.45000005"
       inkscape:connector-curvature="0"
       id="path20"
       clip-path="url(#clipPath2)"
       d="m 15.0003,78 c 1.4427,-8 46.6472,-8 48.0899,0 l 0,24 c -1.4427,8 -46.6472,8 -48.0899,0 z" />
    <path
       transform="translate(15,15)"
       style="fill:none;stroke-linecap:butt;stroke-miterlimit:1.45000005"
       inkscape:connector-curvature="0"
       id="path22"
       clip-path="url(#clipPath2)"
       d="M 63.0902,78 C 61.6475,86 16.443,86 15.0003,78" />
    <text
       transform="translate(15,17)"
       style="stroke:none;font-family:Arial"
       id="text24"
       clip-path="url(#clipPath2)"
       y="94.3564"
       xml:space="preserve"
       x="22.375299">MySql</text>
    <g
       transform="translate(15,15)"
       stroke-miterlimit="1.45"
       id="g26"
       style="stroke-linecap:butt;stroke-miterlimit:1.45000005">
      <path
         d="m 136.9834,70 73.7832,0 0,40 -73.7832,0 z"
         clip-path="url(#clipPath2)"
         id="path28"
         inkscape:connector-curvature="0"
         style="fill:none" />
      <text
         x="146.5264"
         xml:space="preserve"
         y="94.3564"
         clip-path="url(#clipPath2)"
         id="text30"
         style="stroke:none;font-family:Arial">razpisanie</text>
    </g>
    <g
       transform="translate(15,15)"
       stroke-miterlimit="1.45"
       id="g32"
       style="stroke-linecap:butt;stroke-miterlimit:1.45000005">
      <path
         d="m 101.2705,155 145.209,0 0,40 -145.209,0 z"
         clip-path="url(#clipPath2)"
         id="path34"
         inkscape:connector-curvature="0"
         style="fill:none" />
      <text
         x="113.3857"
         xml:space="preserve"
         y="179.3564"
         clip-path="url(#clipPath2)"
         id="text36"
         style="stroke:none;font-family:Arial">потребителски модул</text>
    </g>
    <g
       transform="translate(15,15)"
       stroke-miterlimit="1.45"
       id="g38"
       style="stroke-linecap:butt;stroke-miterlimit:1.45000005">
      <path
         d="m 93.0908,0 161.5684,0 0,40 -161.5684,0 z"
         clip-path="url(#clipPath2)"
         id="path40"
         inkscape:connector-curvature="0"
         style="fill:none" />
      <text
         x="105.4053"
         xml:space="preserve"
         y="24.3564"
         clip-path="url(#clipPath2)"
         id="text42"
         style="stroke:none;font-family:Arial">административен модул</text>
    </g>
    <g
       transform="translate(15,15)"
       stroke-miterlimit="1.45"
       id="g44"
       style="stroke-linecap:butt;stroke-miterlimit:1.45000005">
      <path
         d="m 51.0677,107.2535 0,17.7465 64.7237,0 0,21.9707"
         clip-path="url(#clipPath2)"
         id="path46"
         inkscape:connector-curvature="0"
         style="fill:none" />
    </g>
    <g
       transform="translate(15,15)"
       stroke-miterlimit="1.45"
       id="g48"
       style="stroke-linecap:butt;stroke-miterlimit:1.45000005">
      <path
         d="m 115.7914,154.9707 5,-12 -5,3 -5,-3 z"
         clip-path="url(#clipPath2)"
         id="path50"
         inkscape:connector-curvature="0"
         style="stroke:none" />
      <path
         d="m 149.2806,110 0,15 -4.4474,0 0,21.9707"
         clip-path="url(#clipPath2)"
         id="path52"
         inkscape:connector-curvature="0"
         style="fill:none" />
      <path
         d="m 144.8332,154.9707 5,-12 -5,3 -5,-3 z"
         clip-path="url(#clipPath2)"
         id="path54"
         inkscape:connector-curvature="0"
         style="stroke:none" />
      <path
         d="m 101.2343,175 -74.2117,0 2e-4,-59.7482"
         clip-path="url(#clipPath2)"
         id="path56"
         inkscape:connector-curvature="0"
         style="fill:none" />
      <path
         d="m 27.0228,107.2518 -5,12 5,-3 5,3.0001 z"
         clip-path="url(#clipPath2)"
         id="path58"
         inkscape:connector-curvature="0"
         style="stroke:none" />
      <path
         d="m 173.875,154.9561 0,-36.9561"
         clip-path="url(#clipPath2)"
         id="path60"
         inkscape:connector-curvature="0"
         style="fill:none" />
      <path
         d="m 173.875,110 -5,12 5,-3 5,3 z"
         clip-path="url(#clipPath2)"
         id="path62"
         inkscape:connector-curvature="0"
         style="stroke:none" />
      <path
         d="M 15.0003,90 0,90 0,6.6667 l 85.0454,0"
         clip-path="url(#clipPath2)"
         id="path64"
         inkscape:connector-curvature="0"
         style="fill:none" />
      <path
         d="m 93.0454,6.6667 -12,-5 3,5 -3,5 z"
         clip-path="url(#clipPath2)"
         id="path66"
         inkscape:connector-curvature="0"
         style="stroke:none" />
      <path
         d="m 136.9546,90 -58.8641,0 0,-56.6667 6.971,0"
         clip-path="url(#clipPath2)"
         id="path68"
         inkscape:connector-curvature="0"
         style="fill:none" />
      <path
         d="m 93.0615,33.3333 -12,-5 3,5 -3,5 z"
         clip-path="url(#clipPath2)"
         id="path70"
         inkscape:connector-curvature="0"
         style="stroke:none" />
      <path
         d="m 93.0644,20 -54.0192,0 0,43.9688"
         clip-path="url(#clipPath2)"
         id="path72"
         inkscape:connector-curvature="0"
         style="fill:none" />
      <path
         d="m 39.0452,71.9688 5,-12 -5,3 -5,-3 z"
         clip-path="url(#clipPath2)"
         id="path74"
         inkscape:connector-curvature="0"
         style="stroke:none" />
      <path
         d="m 173.875,40 0,21.9707"
         clip-path="url(#clipPath2)"
         id="path76"
         inkscape:connector-curvature="0"
         style="fill:none" />
      <path
         d="m 173.875,69.9707 5,-12 -5,3 -5,-3 z"
         clip-path="url(#clipPath2)"
         id="path78"
         inkscape:connector-curvature="0"
         style="stroke:none" />
    </g>
  </g>
</svg>
