<?xml version="1.0" encoding="UTF-8"?>
<svg xmlns="http://www.w3.org/2000/svg" xmlns:xlink="http://www.w3.org/1999/xlink" fill-opacity="1" color-rendering="auto" color-interpolation="auto" stroke="black" text-rendering="auto" stroke-linecap="square" width="470" stroke-miterlimit="10" stroke-opacity="1" shape-rendering="auto" fill="black" stroke-dasharray="none" font-weight="normal" stroke-width="1" height="368" font-family="'Dialog'" font-style="normal" stroke-linejoin="miter" font-size="12" stroke-dashoffset="0" image-rendering="auto">
  <!--Generated by ySVG-->
  <defs id="genericDefs"/>
  <g>
    <defs id="defs1">
      <clipPath clipPathUnits="userSpaceOnUse" id="clipPath1">
        <path d="M0 0 L470 0 L470 368 L0 368 L0 0 Z"/>
      </clipPath>
      <clipPath clipPathUnits="userSpaceOnUse" id="clipPath2">
        <path d="M-15 -15 L455 -15 L455 353 L-15 353 L-15 -15 Z"/>
      </clipPath>
    </defs>
    <g fill="white" transform="translate(15,15)" stroke="white">
      <rect x="-15" width="470" height="368" y="-15" clip-path="url(#clipPath2)" stroke="none"/>
    </g>
    <g stroke-linecap="butt" transform="matrix(1,0,0,1,15,15)" stroke-miterlimit="1.45">
      <path fill="none" d="M63.9922 149 L356.2012 149 L356.2012 189 L63.9922 189 Z" clip-path="url(#clipPath2)"/>
      <text x="80.4961" xml:space="preserve" y="173.3564" font-family="'Arial'" clip-path="url(#clipPath2)" stroke="none">Единна транспортна информационна система</text>
    </g>
    <g stroke-linecap="butt" transform="matrix(1,0,0,1,15,15)" stroke-miterlimit="1.45">
      <path fill="none" d="M6.0635 214 L108.1299 214 L108.1299 254 L6.0635 254 Z" clip-path="url(#clipPath2)"/>
      <text x="16.415" xml:space="preserve" y="238.3564" font-family="'Arial'" clip-path="url(#clipPath2)" stroke="none">речни превози</text>
    </g>
    <g stroke-linecap="butt" transform="matrix(1,0,0,1,15,15)" stroke-miterlimit="1.45">
      <path fill="none" d="M137.0889 0 L243.1045 0 L243.1045 40 L137.0889 40 Z" clip-path="url(#clipPath2)"/>
      <text x="152.667" xml:space="preserve" y="24.3564" font-family="'Arial'" clip-path="url(#clipPath2)" stroke="none">авио превози</text>
    </g>
    <g stroke-linecap="butt" transform="matrix(1,0,0,1,15,15)" stroke-miterlimit="1.45">
      <path fill="none" d="M0 71 L131.1934 71 L131.1934 111 L0 111 Z" clip-path="url(#clipPath2)"/>
      <text x="24.6133" xml:space="preserve" y="88.6533" font-family="'Arial'" clip-path="url(#clipPath2)" stroke="none">междуградски </text>
      <text x="12.6689" xml:space="preserve" y="102.0596" font-family="'Arial'" clip-path="url(#clipPath2)" stroke="none">автобусни превози</text>
    </g>
    <g stroke-linecap="butt" transform="matrix(1,0,0,1,15,15)" stroke-miterlimit="1.45">
      <path fill="none" d="M243.8213 298 L354.3721 298 L354.3721 338 L243.8213 338 Z" clip-path="url(#clipPath2)"/>
      <text x="255.1045" xml:space="preserve" y="322.3564" font-family="'Arial'" clip-path="url(#clipPath2)" stroke="none">морски превози</text>
    </g>
    <g stroke-linecap="butt" transform="matrix(1,0,0,1,15,15)" stroke-miterlimit="1.45">
      <path fill="none" d="M324.0537 228 L439.1396 228 L439.1396 268 L324.0537 268 Z" clip-path="url(#clipPath2)"/>
      <text x="336.04" xml:space="preserve" y="252.3564" font-family="'Arial'" clip-path="url(#clipPath2)" stroke="none">градски превози</text>
    </g>
    <g stroke-linecap="butt" transform="matrix(1,0,0,1,15,15)" stroke-miterlimit="1.45">
      <path fill="none" d="M69.8193 298 L213.8213 298 L213.8213 338 L69.8193 338 Z" clip-path="url(#clipPath2)"/>
      <text x="80.915" xml:space="preserve" y="322.3564" font-family="'Arial'" clip-path="url(#clipPath2)" stroke="none">железопътни превози</text>
    </g>
    <g stroke-linecap="butt" transform="matrix(1,0,0,1,15,15)" stroke-miterlimit="1.45">
      <path fill="none" d="M263 41 L394.1934 41 L394.1934 81 L263 81 Z" clip-path="url(#clipPath2)"/>
      <text x="287.1299" xml:space="preserve" y="58.6533" font-family="'Arial'" clip-path="url(#clipPath2)" stroke="none">международни</text>
      <text x="275.6689" xml:space="preserve" y="72.0596" font-family="'Arial'" clip-path="url(#clipPath2)" stroke="none">автобусни превози</text>
    </g>
    <g stroke-linecap="butt" transform="matrix(1,0,0,1,15,15)" stroke-miterlimit="1.45">
      <path fill="none" d="M104.1995 213.989 L155.6538 192.1293" clip-path="url(#clipPath2)"/>
    </g>
    <g stroke-linecap="butt" transform="matrix(1,0,0,1,15,15)" stroke-miterlimit="1.45">
      <path d="M163.0169 189.0012 L150.0172 189.0914 L154.7334 192.5203 L153.9273 198.2953 Z" clip-path="url(#clipPath2)" stroke="none"/>
      <text x="120.2133" xml:space="preserve" y="223.4378" font-family="sans-serif" clip-path="url(#clipPath2)" stroke="none">API</text>
      <path fill="none" d="M192.7773 39.9709 L206.3474 141.0678" clip-path="url(#clipPath2)"/>
      <path d="M207.4117 148.9967 L210.7708 136.4382 L206.2144 140.0767 L200.8597 137.7686 Z" clip-path="url(#clipPath2)" stroke="none"/>
      <text x="205.3022" xml:space="preserve" y="98.9209" font-family="sans-serif" clip-path="url(#clipPath2)" stroke="none">API</text>
      <path fill="none" d="M102.6742 111.0142 L165.9992 145.1965" clip-path="url(#clipPath2)"/>
      <path d="M173.0391 148.9966 L164.8543 138.8966 L165.1192 144.7215 L160.1043 147.6964 Z" clip-path="url(#clipPath2)" stroke="none"/>
      <text x="122.5526" xml:space="preserve" y="148.1418" font-family="sans-serif" clip-path="url(#clipPath2)" stroke="none">API</text>
      <path fill="none" d="M287.1677 298.0291 L226.1474 195.8714" clip-path="url(#clipPath2)"/>
      <path d="M222.045 189.0033 L223.906 201.8694 L226.6602 196.7299 L232.4911 196.7414 Z" clip-path="url(#clipPath2)" stroke="none"/>
      <text x="263.9614" xml:space="preserve" y="247.9209" font-family="sans-serif" clip-path="url(#clipPath2)" stroke="none">API</text>
      <path fill="none" d="M338.1774 227.9993 L260.7964 192.3544" clip-path="url(#clipPath2)"/>
      <path d="M253.5303 189.0073 L262.3376 198.5693 L261.7047 192.7728 L266.5215 189.4866 Z" clip-path="url(#clipPath2)" stroke="none"/>
      <text x="286.6621" xml:space="preserve" y="229.0544" font-family="sans-serif" clip-path="url(#clipPath2)" stroke="none">API</text>
      <path fill="none" d="M150.9716 298.0291 L197.5979 196.2761" clip-path="url(#clipPath2)"/>
      <path d="M200.9306 189.0033 L191.3861 197.8296 L197.1814 197.1852 L200.4771 201.9954 Z" clip-path="url(#clipPath2)" stroke="none"/>
      <text x="184.0741" xml:space="preserve" y="247.9209" font-family="sans-serif" clip-path="url(#clipPath2)" stroke="none">API</text>
      <path fill="none" d="M306.6383 81.0127 L237.9529 143.6121" clip-path="url(#clipPath2)"/>
      <path d="M232.0401 149.0009 L244.2773 144.6131 L238.692 142.9385 L237.5412 137.2222 Z" clip-path="url(#clipPath2)" stroke="none"/>
      <text x="283.2013" xml:space="preserve" y="119.4209" font-family="sans-serif" clip-path="url(#clipPath2)" stroke="none">API</text>
    </g>
  </g>
</svg>
