<?xml version="1.0" encoding="UTF-8"?>
<svg xmlns="http://www.w3.org/2000/svg" xmlns:xlink="http://www.w3.org/1999/xlink" fill-opacity="1" color-rendering="auto" color-interpolation="auto" stroke="black" text-rendering="auto" stroke-linecap="square" width="591" stroke-miterlimit="10" stroke-opacity="1" shape-rendering="auto" fill="black" stroke-dasharray="none" font-weight="normal" stroke-width="1" height="676" font-family="'Dialog'" font-style="normal" stroke-linejoin="miter" font-size="12" stroke-dashoffset="0" image-rendering="auto">
  <!--Generated by ySVG-->
  <defs id="genericDefs"/>
  <g>
    <defs id="defs1">
      <clipPath clipPathUnits="userSpaceOnUse" id="clipPath1">
        <path d="M0 0 L591 0 L591 676 L0 676 L0 0 Z"/>
      </clipPath>
      <clipPath clipPathUnits="userSpaceOnUse" id="clipPath2">
        <path d="M-10 -15 L581 -15 L581 661 L-10 661 L-10 -15 Z"/>
      </clipPath>
    </defs>
    <g fill="white" transform="translate(10,15)" stroke="white">
      <rect x="-10" width="591" height="676" y="-15" clip-path="url(#clipPath2)" stroke="none"/>
    </g>
    <g stroke-linecap="butt" transform="matrix(1,0,0,1,10,15)" stroke-miterlimit="1.45">
      <ellipse rx="27.7393" fill="none" ry="19.5" clip-path="url(#clipPath2)" cx="106.2806" cy="19.5"/>
      <text x="86.3294" xml:space="preserve" y="23.8564" font-family="'Arial'" clip-path="url(#clipPath2)" stroke="none">начало</text>
    </g>
    <g stroke-linecap="butt" transform="matrix(1,0,0,1,10,15)" stroke-miterlimit="1.45">
      <path fill="none" d="M5.0003 69 L207.5608 69 L207.5608 108 L5.0003 108 Z" clip-path="url(#clipPath2)"/>
      <text x="20.3177" xml:space="preserve" y="86.1533" font-family="'Arial'" clip-path="url(#clipPath2)" stroke="none">избор на начална/крайна гара </text>
      <text x="52.4329" xml:space="preserve" y="99.5596" font-family="'Arial'" clip-path="url(#clipPath2)" stroke="none">и дата на пътуване</text>
    </g>
    <g stroke-linecap="butt" transform="matrix(1,0,0,1,10,15)" stroke-miterlimit="1.45">
      <path fill="none" d="M44.2757 138 L168.2854 138 L168.2854 177 L44.2757 177 Z" clip-path="url(#clipPath2)"/>
      <text x="55.386" xml:space="preserve" y="161.8564" font-family="'Arial'" clip-path="url(#clipPath2)" stroke="none">избор на маршрут</text>
    </g>
    <g stroke-linecap="butt" transform="matrix(1,0,0,1,10,15)" stroke-miterlimit="1.45">
      <path fill="none" d="M33.2015 207 L179.3596 207 L179.3596 246 L33.2015 246 Z" clip-path="url(#clipPath2)"/>
      <text x="45.5833" xml:space="preserve" y="230.8564" font-family="'Arial'" clip-path="url(#clipPath2)" stroke="none">избор на билет/място</text>
    </g>
    <g stroke-linecap="butt" transform="matrix(1,0,0,1,10,15)" stroke-miterlimit="1.45">
      <path fill="none" d="M11.7474 291 L200.8138 291 L200.8138 330 L11.7474 330 Z" clip-path="url(#clipPath2)"/>
      <text x="23.8157" xml:space="preserve" y="314.8564" font-family="'Arial'" clip-path="url(#clipPath2)" stroke="none">потвърждаване на поръчката</text>
    </g>
    <g stroke-linecap="butt" transform="matrix(1,0,0,1,10,15)" stroke-miterlimit="1.45">
      <path fill="none" d="M106.2806 360 L172.8001 385.5 L106.2806 411 L39.761 385.5 Z" clip-path="url(#clipPath2)"/>
      <text x="79.8196" xml:space="preserve" y="383.1533" font-family="'Arial'" clip-path="url(#clipPath2)" stroke="none">влязъл в </text>
      <text x="73.9602" xml:space="preserve" y="396.5596" font-family="'Arial'" clip-path="url(#clipPath2)" stroke="none">системата?</text>
    </g>
    <g stroke-linecap="butt" transform="matrix(1,0,0,1,10,15)" stroke-miterlimit="1.45">
      <path fill="none" d="M8.1995 458.9629 L204.3616 458.9629 L204.3616 497.9629 L8.1995 497.9629 Z" clip-path="url(#clipPath2)"/>
      <text x="20.93" xml:space="preserve" y="482.8193" font-family="'Arial'" clip-path="url(#clipPath2)" stroke="none">плащане на избраните билети</text>
    </g>
    <g stroke-linecap="butt" transform="matrix(1,0,0,1,10,15)" stroke-miterlimit="1.45">
      <path fill="none" d="M15.3186 537.4629 L197.2425 537.4629 L197.2425 576.4629 L15.3186 576.4629 Z" clip-path="url(#clipPath2)"/>
      <text x="27.2698" xml:space="preserve" y="554.6162" font-family="'Arial'" clip-path="url(#clipPath2)" stroke="none">разпечатване на избраните </text>
      <text x="52.6878" xml:space="preserve" y="568.0225" font-family="'Arial'" clip-path="url(#clipPath2)" stroke="none">електронни билети</text>
    </g>
    <g stroke-linecap="butt" transform="matrix(1,0,0,1,10,15)" stroke-miterlimit="1.45">
      <rect x="85.0599" y="606.4629" clip-path="url(#clipPath2)" fill="none" width="42.4414" rx="19.5" ry="19.5" height="39"/>
      <text x="93.6302" xml:space="preserve" y="630.3193" font-family="'Arial'" clip-path="url(#clipPath2)" stroke="none">край</text>
    </g>
    <g stroke-linecap="butt" transform="matrix(1,0,0,1,10,15)" stroke-miterlimit="1.45">
      <path fill="none" d="M319.35 449.4629 L404.3383 478.4629 L319.35 507.4629 L234.3617 478.4629 Z" clip-path="url(#clipPath2)"/>
      <text x="283.0453" xml:space="preserve" y="476.1162" font-family="'Arial'" clip-path="url(#clipPath2)" stroke="none">регистриран </text>
      <text x="283.6313" xml:space="preserve" y="489.5225" font-family="'Arial'" clip-path="url(#clipPath2)" stroke="none">потребител?</text>
    </g>
    <g stroke-linecap="butt" transform="matrix(1,0,0,1,10,15)" stroke-miterlimit="1.45">
      <path fill="none" d="M401.3895 537.4629 L565.2137 537.4629 L565.2137 576.4629 L401.3895 576.4629 Z" clip-path="url(#clipPath2)"/>
      <text x="413.1238" xml:space="preserve" y="561.3193" font-family="'Arial'" clip-path="url(#clipPath2)" stroke="none">регистрация в системата</text>
    </g>
    <g stroke-linecap="butt" transform="matrix(1,0,0,1,10,15)" stroke-miterlimit="1.45">
      <path fill="none" d="M106.2806 39 L106.2806 60.9707" clip-path="url(#clipPath2)"/>
    </g>
    <g stroke-linecap="butt" transform="matrix(1,0,0,1,10,15)" stroke-miterlimit="1.45">
      <path d="M106.2806 68.9707 L111.2806 56.9707 L106.2806 59.9707 L101.2806 56.9707 Z" clip-path="url(#clipPath2)" stroke="none"/>
      <path fill="none" d="M106.2806 108 L106.2806 129.9707" clip-path="url(#clipPath2)"/>
      <path d="M106.2806 137.9707 L111.2806 125.9707 L106.2806 128.9707 L101.2806 125.9707 Z" clip-path="url(#clipPath2)" stroke="none"/>
      <path fill="none" d="M106.2806 177 L106.2806 198.9707" clip-path="url(#clipPath2)"/>
      <path d="M106.2806 206.9707 L111.2806 194.9707 L106.2806 197.9707 L101.2806 194.9707 Z" clip-path="url(#clipPath2)" stroke="none"/>
      <path fill="none" d="M106.2806 246 L106.2806 282.9561" clip-path="url(#clipPath2)"/>
      <path d="M106.2806 290.9561 L111.2806 278.9561 L106.2806 281.9561 L101.2806 278.9561 Z" clip-path="url(#clipPath2)" stroke="none"/>
      <path fill="none" d="M106.2806 330 L106.2806 352" clip-path="url(#clipPath2)"/>
      <path d="M106.2806 360 L111.2806 348 L106.2806 351 L101.2806 348 Z" clip-path="url(#clipPath2)" stroke="none"/>
      <path fill="none" d="M106.2806 411 L106.2806 450.916" clip-path="url(#clipPath2)"/>
      <path d="M106.2806 458.916 L111.2806 446.916 L106.2806 449.916 L101.2806 446.916 Z" clip-path="url(#clipPath2)" stroke="none"/>
      <text x="87.5911" xml:space="preserve" y="434.5273" font-family="sans-serif" clip-path="url(#clipPath2)" stroke="none">да</text>
      <path fill="none" d="M106.2806 497.9629 L106.2806 529.4243" clip-path="url(#clipPath2)"/>
      <path d="M106.2806 537.4243 L111.2806 525.4243 L106.2806 528.4243 L101.2806 525.4243 Z" clip-path="url(#clipPath2)" stroke="none"/>
      <path fill="none" d="M106.2806 576.4629 L106.2806 598.4336" clip-path="url(#clipPath2)"/>
      <path d="M106.2806 606.4336 L111.2806 594.4336 L106.2806 597.4336 L101.2806 594.4336 Z" clip-path="url(#clipPath2)" stroke="none"/>
      <path fill="none" d="M172.8001 385.5 L319.35 385.5 L319.35 441.4629" clip-path="url(#clipPath2)"/>
      <path d="M319.35 449.4629 L324.35 437.4629 L319.35 440.4629 L314.35 437.4629 Z" clip-path="url(#clipPath2)" stroke="none"/>
      <text x="184.9251" xml:space="preserve" y="378.9395" font-family="sans-serif" clip-path="url(#clipPath2)" stroke="none">не</text>
      <path fill="none" d="M404.3773 478.4629 L444.3016 478.4629 L444.3016 276 L164 276 L164 282.9941" clip-path="url(#clipPath2)"/>
      <path d="M164 290.9941 L169 278.9941 L164 281.9941 L159 278.9941 Z" clip-path="url(#clipPath2)" stroke="none"/>
      <text x="416.4633" xml:space="preserve" y="471.9023" font-family="sans-serif" clip-path="url(#clipPath2)" stroke="none">да</text>
      <path fill="none" d="M319.35 507.4629 L319.35 556.9629 L393.3494 556.9629" clip-path="url(#clipPath2)"/>
      <path d="M401.3494 556.9629 L389.3494 551.9629 L392.3494 556.9629 L389.3494 561.9629 Z" clip-path="url(#clipPath2)" stroke="none"/>
      <text x="301.1469" xml:space="preserve" y="530.9902" font-family="sans-serif" clip-path="url(#clipPath2)" stroke="none">не</text>
      <path fill="none" d="M483.3016 537.4285 L483.3016 256 L135 256 L135 282.9922" clip-path="url(#clipPath2)"/>
      <path d="M135 290.9922 L140 278.9922 L135 281.9922 L130 278.9922 Z" clip-path="url(#clipPath2)" stroke="none"/>
    </g>
  </g>
</svg>
