<?xml version="1.0" encoding="UTF-8" standalone="no"?>
<svg
   xmlns:dc="http://purl.org/dc/elements/1.1/"
   xmlns:cc="http://creativecommons.org/ns#"
   xmlns:rdf="http://www.w3.org/1999/02/22-rdf-syntax-ns#"
   xmlns:svg="http://www.w3.org/2000/svg"
   xmlns="http://www.w3.org/2000/svg"
   xmlns:sodipodi="http://sodipodi.sourceforge.net/DTD/sodipodi-0.dtd"
   xmlns:inkscape="http://www.inkscape.org/namespaces/inkscape"
   fill-opacity="1"
   color-rendering="auto"
   color-interpolation="auto"
   stroke="black"
   text-rendering="auto"
   stroke-linecap="square"
   width="206"
   stroke-miterlimit="10"
   stroke-opacity="1"
   shape-rendering="auto"
   fill="black"
   stroke-dasharray="none"
   font-weight="normal"
   stroke-width="1"
   height="225"
   font-family="'Dialog'"
   font-style="normal"
   stroke-linejoin="miter"
   font-size="12"
   stroke-dashoffset="0"
   image-rendering="auto"
   id="svg3115"
   version="1.1"
   inkscape:version="0.48.3.1 r9886"
   sodipodi:docname="sample_graph.svg">
  <metadata
     id="metadata3205">
    <rdf:RDF>
      <cc:Work
         rdf:about="">
        <dc:format>image/svg+xml</dc:format>
        <dc:type
           rdf:resource="http://purl.org/dc/dcmitype/StillImage" />
        <dc:title></dc:title>
      </cc:Work>
    </rdf:RDF>
  </metadata>
  <sodipodi:namedview
     pagecolor="#ffffff"
     bordercolor="#666666"
     borderopacity="1"
     objecttolerance="10"
     gridtolerance="10"
     guidetolerance="10"
     inkscape:pageopacity="0"
     inkscape:pageshadow="2"
     inkscape:window-width="640"
     inkscape:window-height="480"
     id="namedview3203"
     showgrid="false"
     inkscape:zoom="1.0488889"
     inkscape:cx="103"
     inkscape:cy="112.5"
     inkscape:window-x="390"
     inkscape:window-y="149"
     inkscape:window-maximized="0"
     inkscape:current-layer="svg3115" />
  <!--Generated by ySVG-->
  <defs
     id="genericDefs" />
  <g
     id="g3118">
    <defs
       id="defs1">
      <clipPath
         clipPathUnits="userSpaceOnUse"
         id="clipPath1">
        <path
           d="M0 0 L206 0 L206 225 L0 225 L0 0 Z"
           id="path3122" />
      </clipPath>
      <clipPath
         clipPathUnits="userSpaceOnUse"
         id="clipPath2">
        <path
           d="M0 -15 L206 -15 L206 210 L0 210 L0 -15 Z"
           id="path3125" />
      </clipPath>
    </defs>
    <g
       fill="white"
       transform="translate(0,15)"
       stroke="white"
       id="g3127">
      <rect
         x="0"
         width="206"
         height="225"
         y="-15"
         clip-path="url(#clipPath2)"
         stroke="none"
         id="rect3129" />
    </g>
    <g
       fill="white"
       transform="matrix(1,0,0,1,0,15)"
       stroke="white"
       id="g3131">
      <rect
         x="112.524"
         width="52.748"
         height="30"
         y="0"
         clip-path="url(#clipPath2)"
         stroke="none"
         id="rect3133" />
    </g>
    <g
       stroke-miterlimit="1.45"
       font-family="sans-serif"
       transform="matrix(1,0,0,1,0,15)"
       stroke-linecap="butt"
       id="g3135">
      <text
         x="119.524"
         xml:space="preserve"
         y="19.4209"
         clip-path="url(#clipPath2)"
         stroke="none"
         id="text3137">София</text>
      <rect
         fill="none"
         x="112.524"
         width="52.748"
         height="30"
         y="0"
         clip-path="url(#clipPath2)"
         id="rect3139" />
    </g>
    <g
       fill="white"
       transform="matrix(1,0,0,1,0,15)"
       stroke="white"
       id="g3141">
      <rect
         x="15.0002"
         width="49.2266"
         height="30"
         y="90"
         clip-path="url(#clipPath2)"
         stroke="none"
         id="rect3143" />
    </g>
    <g
       stroke-miterlimit="1.45"
       font-family="sans-serif"
       transform="matrix(1,0,0,1,0,15)"
       stroke-linecap="butt"
       id="g3145">
      <text
         x="22.0002"
         xml:space="preserve"
         y="109.4209"
         clip-path="url(#clipPath2)"
         stroke="none"
         id="text3147">Варна</text>
      <rect
         fill="none"
         x="15.0002"
         width="49.2266"
         height="30"
         y="90"
         clip-path="url(#clipPath2)"
         id="rect3149" />
    </g>
    <g
       fill="white"
       transform="matrix(1,0,0,1,0,15)"
       stroke="white"
       id="g3151">
      <rect
         x="136.4966"
         width="53.6504"
         height="30"
         y="165"
         clip-path="url(#clipPath2)"
         stroke="none"
         id="rect3153" />
    </g>
    <g
       stroke-miterlimit="1.45"
       font-family="sans-serif"
       transform="matrix(1,0,0,1,0,15)"
       stroke-linecap="butt"
       id="g3155">
      <text
         x="143.4966"
         xml:space="preserve"
         y="184.4209"
         clip-path="url(#clipPath2)"
         stroke="none"
         id="text3157">Бургас</text>
      <rect
         fill="none"
         x="136.4966"
         width="53.6504"
         height="30"
         y="165"
         clip-path="url(#clipPath2)"
         id="rect3159" />
    </g>
    <g
       fill="white"
       transform="matrix(1,0,0,1,0,15)"
       stroke="white"
       id="g3161">
      <rect
         x="94.2272"
         width="65.4219"
         height="30"
         y="90"
         clip-path="url(#clipPath2)"
         stroke="none"
         id="rect3163" />
    </g>
    <g
       stroke-miterlimit="1.45"
       font-family="sans-serif"
       transform="matrix(1,0,0,1,0,15)"
       stroke-linecap="butt"
       id="g3165">
      <text
         x="101.2272"
         xml:space="preserve"
         y="109.4209"
         clip-path="url(#clipPath2)"
         stroke="none"
         id="text3167">Пловдив</text>
      <rect
         fill="none"
         x="94.2272"
         width="65.4219"
         height="30"
         y="90"
         clip-path="url(#clipPath2)"
         id="rect3169" />
      <path
         fill="none"
         d="M116.9197 30 L116.9197 45 L27.3069 45 L27.3069 81.9561"
         clip-path="url(#clipPath2)"
         id="path3171" />
      <path
         d="M27.3069 89.9561 L32.3069 77.9561 L27.3069 80.9561 L22.3069 77.9561 Z"
         clip-path="url(#clipPath2)"
         stroke="none"
         id="path3173" />
      <path
         fill="none"
         d="M51.9201 89.9707 L51.9201 60 L125.711 60 L125.711 38"
         clip-path="url(#clipPath2)"
         id="path3175" />
      <path
         d="M125.711 30 L120.711 42 L125.711 39 L130.711 42 Z"
         clip-path="url(#clipPath2)"
         stroke="none"
         id="path3177" />
      <path
         fill="none"
         d="M152.085 30 L152.085 60 L174.6492 60 L174.6492 120 L170.0281 120 L170.0281 156.9561"
         clip-path="url(#clipPath2)"
         id="path3179" />
      <path
         d="M170.0281 164.9561 L175.0281 152.9561 L170.0281 155.9561 L165.0281 152.9561 Z"
         clip-path="url(#clipPath2)"
         stroke="none"
         id="path3181" />
      <path
         fill="none"
         d="M183.4407 164.9707 L183.4409 45 L160.8764 45 L160.8764 38"
         clip-path="url(#clipPath2)"
         id="path3183" />
      <path
         d="M160.8764 30 L155.8764 42 L160.8764 39 L165.8764 42 Z"
         clip-path="url(#clipPath2)"
         stroke="none"
         id="path3185" />
      <path
         fill="none"
         d="M134.5023 30 L134.5023 75 L110.5826 75 L110.5826 81.9707"
         clip-path="url(#clipPath2)"
         id="path3187" />
      <path
         d="M110.5826 89.9707 L115.5826 77.9707 L110.5826 80.9707 L105.5826 77.9707 Z"
         clip-path="url(#clipPath2)"
         stroke="none"
         id="path3189" />
      <path
         fill="none"
         d="M156.6155 164.9707 L156.6155 135 L143.2936 135 L143.2936 128"
         clip-path="url(#clipPath2)"
         id="path3191" />
      <path
         d="M143.2936 120 L138.2936 132 L143.2936 129 L148.2936 132 Z"
         clip-path="url(#clipPath2)"
         stroke="none"
         id="path3193" />
      <path
         fill="none"
         d="M143.2936 89.9707 L143.2937 38"
         clip-path="url(#clipPath2)"
         id="path3195" />
      <path
         d="M143.2937 30 L138.2937 42 L143.2937 39 L148.2937 42 Z"
         clip-path="url(#clipPath2)"
         stroke="none"
         id="path3197" />
      <path
         fill="none"
         d="M110.5826 120 L110.5826 150 L143.2029 150 L143.2029 156.9707"
         clip-path="url(#clipPath2)"
         id="path3199" />
      <path
         d="M143.2029 164.9707 L148.2029 152.9707 L143.2029 155.9707 L138.2029 152.9707 Z"
         clip-path="url(#clipPath2)"
         stroke="none"
         id="path3201" />
    </g>
  </g>
</svg>
