<?xml version="1.0" encoding="UTF-8"?>
<svg xmlns="http://www.w3.org/2000/svg" xmlns:xlink="http://www.w3.org/1999/xlink" fill-opacity="1" color-rendering="auto" color-interpolation="auto" stroke="black" text-rendering="auto" stroke-linecap="square" width="650" stroke-miterlimit="10" stroke-opacity="1" shape-rendering="auto" fill="black" stroke-dasharray="none" font-weight="normal" stroke-width="1" height="420" font-family="'Dialog'" font-style="normal" stroke-linejoin="miter" font-size="12" stroke-dashoffset="0" image-rendering="auto">
  <!--Generated by ySVG-->
  <defs id="genericDefs"/>
  <g>
    <defs id="defs1">
      <clipPath clipPathUnits="userSpaceOnUse" id="clipPath1">
        <path d="M0 0 L650 0 L650 420 L0 420 L0 0 Z"/>
      </clipPath>
      <clipPath clipPathUnits="userSpaceOnUse" id="clipPath2">
        <path d="M-363 312 L287 312 L287 732 L-363 732 L-363 312 Z"/>
      </clipPath>
    </defs>
    <g fill="white" transform="translate(363,-312)" stroke="white">
      <rect x="-363" width="650" height="420" y="312" clip-path="url(#clipPath2)" stroke="none"/>
    </g>
    <g stroke-linecap="butt" transform="matrix(1,0,0,1,363,-312)" stroke-miterlimit="1.45">
      <ellipse rx="26.9512" fill="none" ry="20" clip-path="url(#clipPath2)" cx="-256.1111" cy="347"/>
      <text x="-276.0623" xml:space="preserve" y="351.3564" font-family="'Arial'" clip-path="url(#clipPath2)" stroke="none">начало</text>
    </g>
    <g stroke-linecap="butt" transform="matrix(1,0,0,1,363,-312)" stroke-miterlimit="1.45">
      <path fill="none" d="M-326.2605 397 L-185.9617 397 L-185.9617 437 L-326.2605 437 Z" clip-path="url(#clipPath2)"/>
      <text x="-319.2605" xml:space="preserve" y="421.3564" font-family="'Arial'" clip-path="url(#clipPath2)" stroke="none">зареждане на данните</text>
    </g>
    <g stroke-linecap="butt" transform="matrix(1,0,0,1,363,-312)" stroke-miterlimit="1.45">
      <path fill="none" d="M-317.9637 467 L-194.2586 467 L-194.2586 507 L-317.9637 507 Z" clip-path="url(#clipPath2)"/>
      <text x="-298.5623" xml:space="preserve" y="484.6533" font-family="'Arial'" clip-path="url(#clipPath2)" stroke="none">изграждане на </text>
      <text x="-310.9637" xml:space="preserve" y="498.0596" font-family="'Arial'" clip-path="url(#clipPath2)" stroke="none">матрица на теглата</text>
    </g>
    <g stroke-linecap="butt" transform="matrix(1,0,0,1,363,-312)" stroke-miterlimit="1.45">
      <path fill="none" d="M-306.1541 537 L-206.0681 537 L-206.0681 577 L-306.1541 577 Z" clip-path="url(#clipPath2)"/>
      <text x="-296.8953" xml:space="preserve" y="554.6533" font-family="'Arial'" clip-path="url(#clipPath2)" stroke="none">изграждане на</text>
      <text x="-299.1541" xml:space="preserve" y="568.0596" font-family="'Arial'" clip-path="url(#clipPath2)" stroke="none">разширен граф</text>
    </g>
    <g stroke-linecap="butt" transform="matrix(1,0,0,1,363,-312)" stroke-miterlimit="1.45">
      <path fill="none" d="M-324.0047 607 L-188.2176 607 L-188.2176 647 L-324.0047 647 Z" clip-path="url(#clipPath2)"/>
      <text x="-301.6004" xml:space="preserve" y="624.6533" font-family="'Arial'" clip-path="url(#clipPath2)" stroke="none">изчисляване на </text>
      <text x="-317.0047" xml:space="preserve" y="638.0596" font-family="'Arial'" clip-path="url(#clipPath2)" stroke="none">минималните пътища</text>
    </g>
    <g stroke-linecap="butt" transform="matrix(1,0,0,1,363,-312)" stroke-miterlimit="1.45">
      <path fill="none" d="M-347.1346 677 L-165.0877 677 L-165.0877 717 L-347.1346 717 Z" clip-path="url(#clipPath2)"/>
      <text x="-340.1346" xml:space="preserve" y="701.3564" font-family="'Arial'" clip-path="url(#clipPath2)" stroke="none">стартиране на WEB сървърът</text>
    </g>
    <g stroke-linecap="butt" transform="matrix(1,0,0,1,363,-312)" stroke-miterlimit="1.45">
      <path fill="none" d="M45.0315 537 L170.7463 537 L170.7463 577 L45.0315 577 Z" clip-path="url(#clipPath2)"/>
      <text x="52.0315" xml:space="preserve" y="561.3564" font-family="'Arial'" clip-path="url(#clipPath2)" stroke="none">приемане на заявка</text>
    </g>
    <g stroke-linecap="butt" transform="matrix(1,0,0,1,363,-312)" stroke-miterlimit="1.45">
      <rect fill="none" x="5.76" width="204.2578" height="40" y="467" clip-path="url(#clipPath2)"/>
      <path fill="none" d="M15.76 467 L15.76 507 M200.0178 467 L200.0178 507 M15.76 467 Z" clip-path="url(#clipPath2)"/>
      <text x="50.4729" xml:space="preserve" y="491.3564" font-family="'Arial'" clip-path="url(#clipPath2)" stroke="none">обработка на заявки</text>
    </g>
    <g stroke-linecap="butt" transform="matrix(1,0,0,1,363,-312)" stroke-miterlimit="1.45">
      <path fill="none" d="M2.0471 607 L213.7307 607 L213.7307 647 L2.0471 647 Z" clip-path="url(#clipPath2)"/>
      <text x="9.0471" xml:space="preserve" y="631.3564" font-family="'Arial'" clip-path="url(#clipPath2)" stroke="none">изчисляване на оптимални пътища</text>
    </g>
    <g stroke-linecap="butt" transform="matrix(1,0,0,1,363,-312)" stroke-miterlimit="1.45">
      <path fill="none" d="M33.9572 677 L181.8205 677 L181.8205 717 L33.9572 717 Z" clip-path="url(#clipPath2)"/>
      <text x="40.9572" xml:space="preserve" y="701.3564" font-family="'Arial'" clip-path="url(#clipPath2)" stroke="none">генериране на резултат</text>
    </g>
    <g stroke-linecap="butt" transform="matrix(1,0,0,1,363,-312)" stroke-miterlimit="1.45">
      <path fill="none" d="M-256.1111 367 L-256.1111 388.9707" clip-path="url(#clipPath2)"/>
    </g>
    <g stroke-linecap="butt" transform="matrix(1,0,0,1,363,-312)" stroke-miterlimit="1.45">
      <path d="M-256.1111 396.9707 L-251.1111 384.9707 L-256.1111 387.9707 L-261.1111 384.9707 Z" clip-path="url(#clipPath2)" stroke="none"/>
      <path fill="none" d="M-256.1111 437 L-256.1111 458.9707" clip-path="url(#clipPath2)"/>
      <path d="M-256.1111 466.9707 L-251.1111 454.9707 L-256.1111 457.9707 L-261.1111 454.9707 Z" clip-path="url(#clipPath2)" stroke="none"/>
      <path fill="none" d="M-256.1111 507 L-256.1111 528.9707" clip-path="url(#clipPath2)"/>
      <path d="M-256.1111 536.9707 L-251.1111 524.9707 L-256.1111 527.9707 L-261.1111 524.9707 Z" clip-path="url(#clipPath2)" stroke="none"/>
      <path fill="none" d="M-256.1111 577 L-256.1111 598.9707" clip-path="url(#clipPath2)"/>
      <path d="M-256.1111 606.9707 L-251.1111 594.9707 L-256.1111 597.9707 L-261.1111 594.9707 Z" clip-path="url(#clipPath2)" stroke="none"/>
      <path fill="none" d="M-256.1111 647 L-256.1111 668.9707" clip-path="url(#clipPath2)"/>
      <path d="M-256.1111 676.9707 L-251.1111 664.9707 L-256.1111 667.9707 L-261.1111 664.9707 Z" clip-path="url(#clipPath2)" stroke="none"/>
      <path fill="none" d="M116.3982 466.9931 L117.2991 466.7886 L120.125 465.5406 L122.6624 463.7786 L124.8315 461.5474 L126.5525 458.8917 L127.7453 455.8564 L128.3084 452.6441 L128.223 449.4808 L127.5339 446.4462 L126.286 443.6203 L124.524 441.0829 L122.2927 438.9138 L119.6371 437.1929 L116.6018 436 L113.3895 435.4369 L110.2261 435.5223 L107.1916 436.2114 L104.3656 437.4594 L101.8282 439.2214 L99.6591 441.4526 L97.9382 444.1083 L96.7453 447.1436 L96.1823 450.3558 L96.2677 453.5192 L96.9568 456.5538 L98.2047 459.3797 L99.9667 461.9171 L100.9856 462.9076 L101.0746 462.9532" clip-path="url(#clipPath2)"/>
      <path d="M108.1936 466.6028 L99.796 456.6791 L100.1847 462.497 L95.2341 465.5779 Z" clip-path="url(#clipPath2)" stroke="none"/>
      <path fill="none" d="M-165.1049 697 L-40.9529 697 L-40.9529 587 L16.5746 587 L16.5746 515.0371" clip-path="url(#clipPath2)"/>
      <path d="M16.5746 507.0371 L11.5746 519.0371 L16.5746 516.0371 L21.5746 519.0371 Z" clip-path="url(#clipPath2)" stroke="none"/>
      <path fill="none" d="M107.8889 507 L107.8889 528.9707" clip-path="url(#clipPath2)"/>
      <path d="M107.8889 536.9707 L112.8889 524.9707 L107.8889 527.9707 L102.8889 524.9707 Z" clip-path="url(#clipPath2)" stroke="none"/>
      <path fill="none" d="M107.8889 577 L107.8889 598.9707" clip-path="url(#clipPath2)"/>
      <path d="M107.8889 606.9707 L112.8889 594.9707 L107.8889 597.9707 L102.8889 594.9707 Z" clip-path="url(#clipPath2)" stroke="none"/>
      <path fill="none" d="M107.8889 647 L107.8889 668.9707" clip-path="url(#clipPath2)"/>
      <path d="M107.8889 676.9707 L112.8889 664.9707 L107.8889 667.9707 L102.8889 664.9707 Z" clip-path="url(#clipPath2)" stroke="none"/>
      <path fill="none" d="M181.8236 697 L271.3322 697 L271.3322 587 L197.7288 587 L197.7288 515.0137" clip-path="url(#clipPath2)"/>
      <path d="M197.7288 507.0137 L192.7288 519.0137 L197.7288 516.0137 L202.7288 519.0137 Z" clip-path="url(#clipPath2)" stroke="none"/>
    </g>
  </g>
</svg>
